<?xml version="1.0" encoding="UTF-8" standalone="no"?>
<!DOCTYPE svg PUBLIC "-//W3C//DTD SVG 1.1//EN"
 "http://www.w3.org/Graphics/SVG/1.1/DTD/svg11.dtd">
<!-- Generated by graphviz version 2.38.0 (20140413.2041)
 -->
<!-- Title: Shapes.Program.GetValue Pages: 1 -->
<svg width="489pt" height="104pt"
 viewBox="0.00 0.00 489.00 104.00" xmlns="http://www.w3.org/2000/svg" xmlns:xlink="http://www.w3.org/1999/xlink">
<g id="graph0" class="graph" transform="scale(1 1) rotate(0) translate(4 100)">
<title>Shapes.Program.GetValue</title>
<polygon fill="white" stroke="none" points="-4,4 -4,-100 485,-100 485,4 -4,4"/>
<!-- Node42 -->
<g id="node1" class="node"><title>Node42</title>
<polygon fill="#bfbfbf" stroke="black" points="0,-38.5 0,-57.5 133,-57.5 133,-38.5 0,-38.5"/>
<text text-anchor="middle" x="66.5" y="-45.5" font-family="Helvetica,sans-Serif" font-size="10.00">Shapes.Program.GetValue</text>
</g>
<!-- Node43 -->
<g id="node2" class="node"><title>Node43</title>
<g id="a_node2"><a xlink:href="class_shapes_1_1_program.html#a1efd94a5fcc1c59889d86eb3b6338126" target="_top" xlink:title="Calculations for circle. ">
<polygon fill="white" stroke="black" points="178.5,-76.5 178.5,-95.5 322.5,-95.5 322.5,-76.5 178.5,-76.5"/>
<text text-anchor="middle" x="250.5" y="-83.5" font-family="Helvetica,sans-Serif" font-size="10.00">Shapes.Program.DefineCircle</text>
</a>
</g>
</g>
<!-- Node42&#45;&gt;Node43 -->
<g id="edge1" class="edge"><title>Node42&#45;&gt;Node43</title>
<path fill="none" stroke="midnightblue" d="M123.446,-59.681C149.256,-65.0699 179.507,-71.3861 203.904,-76.4799"/>
<polygon fill="midnightblue" stroke="midnightblue" points="123.931,-56.2068 113.426,-57.589 122.5,-63.059 123.931,-56.2068"/>
</g>
<!-- Node45 -->
<g id="node4" class="node"><title>Node45</title>
<g id="a_node4"><a xlink:href="class_shapes_1_1_program.html#a8a1637f40366dbd731d40d851a9d56d5" target="_top" xlink:title="Calculations for triangle. ">
<polygon fill="white" stroke="black" points="169,-38.5 169,-57.5 332,-57.5 332,-38.5 169,-38.5"/>
<text text-anchor="middle" x="250.5" y="-45.5" font-family="Helvetica,sans-Serif" font-size="10.00">Shapes.Program.DefineRectangle</text>
</a>
</g>
</g>
<!-- Node42&#45;&gt;Node45 -->
<g id="edge3" class="edge"><title>Node42&#45;&gt;Node45</title>
<path fill="none" stroke="midnightblue" d="M143.401,-48C151.849,-48 160.474,-48 168.977,-48"/>
<polygon fill="midnightblue" stroke="midnightblue" points="143.206,-44.5001 133.206,-48 143.206,-51.5001 143.206,-44.5001"/>
</g>
<!-- Node46 -->
<g id="node5" class="node"><title>Node46</title>
<g id="a_node5"><a xlink:href="class_shapes_1_1_program.html#ad8b6d8412545a58506aaaad285d34ff6" target="_top" xlink:title="Calculations for triangle. ">
<polygon fill="white" stroke="black" points="174,-0.5 174,-19.5 327,-19.5 327,-0.5 174,-0.5"/>
<text text-anchor="middle" x="250.5" y="-7.5" font-family="Helvetica,sans-Serif" font-size="10.00">Shapes.Program.DefineTriangle</text>
</a>
</g>
</g>
<!-- Node42&#45;&gt;Node46 -->
<g id="edge5" class="edge"><title>Node42&#45;&gt;Node46</title>
<path fill="none" stroke="midnightblue" d="M123.446,-36.319C149.256,-30.9301 179.507,-24.6139 203.904,-19.5201"/>
<polygon fill="midnightblue" stroke="midnightblue" points="122.5,-32.941 113.426,-38.411 123.931,-39.7932 122.5,-32.941"/>
</g>
<!-- Node44 -->
<g id="node3" class="node"><title>Node44</title>
<g id="a_node3"><a xlink:href="class_shapes_1_1_program.html#a594c0a6ca9384efead89054fe342664c" target="_top" xlink:title="Main function. ">
<polygon fill="white" stroke="black" points="368,-38.5 368,-57.5 481,-57.5 481,-38.5 368,-38.5"/>
<text text-anchor="middle" x="424.5" y="-45.5" font-family="Helvetica,sans-Serif" font-size="10.00">Shapes.Program.Main</text>
</a>
</g>
</g>
<!-- Node43&#45;&gt;Node44 -->
<g id="edge2" class="edge"><title>Node43&#45;&gt;Node44</title>
<path fill="none" stroke="midnightblue" d="M304.696,-74.2474C329.017,-68.8742 357.455,-62.5914 380.409,-57.5201"/>
<polygon fill="midnightblue" stroke="midnightblue" points="303.912,-70.836 294.903,-76.411 305.422,-77.6712 303.912,-70.836"/>
</g>
<!-- Node45&#45;&gt;Node44 -->
<g id="edge4" class="edge"><title>Node45&#45;&gt;Node44</title>
<path fill="none" stroke="midnightblue" d="M342.387,-48C351.046,-48 359.639,-48 367.813,-48"/>
<polygon fill="midnightblue" stroke="midnightblue" points="342.212,-44.5001 332.212,-48 342.212,-51.5001 342.212,-44.5001"/>
</g>
<!-- Node46&#45;&gt;Node44 -->
<g id="edge6" class="edge"><title>Node46&#45;&gt;Node44</title>
<path fill="none" stroke="midnightblue" d="M304.696,-21.7526C329.017,-27.1258 357.455,-33.4086 380.409,-38.4799"/>
<polygon fill="midnightblue" stroke="midnightblue" points="305.422,-18.3288 294.903,-19.589 303.912,-25.164 305.422,-18.3288"/>
</g>
</g>
</svg>
