<?xml version="1.0" encoding="UTF-8" standalone="no"?>
<!DOCTYPE svg PUBLIC "-//W3C//DTD SVG 1.1//EN"
 "http://www.w3.org/Graphics/SVG/1.1/DTD/svg11.dtd">
<!-- Generated by graphviz version 2.38.0 (20140413.2041)
 -->
<!-- Title: Shapes.Circle.GetArea Pages: 1 -->
<svg width="584pt" height="28pt"
 viewBox="0.00 0.00 584.00 28.00" xmlns="http://www.w3.org/2000/svg" xmlns:xlink="http://www.w3.org/1999/xlink">
<g id="graph0" class="graph" transform="scale(1 1) rotate(0) translate(4 24)">
<title>Shapes.Circle.GetArea</title>
<polygon fill="white" stroke="none" points="-4,4 -4,-24 580,-24 580,4 -4,4"/>
<!-- Node3 -->
<g id="node1" class="node"><title>Node3</title>
<polygon fill="#bfbfbf" stroke="black" points="0,-0.5 0,-19.5 116,-19.5 116,-0.5 0,-0.5"/>
<text text-anchor="middle" x="58" y="-7.5" font-family="Helvetica,sans-Serif" font-size="10.00">Shapes.Circle.GetArea</text>
</g>
<!-- Node4 -->
<g id="node2" class="node"><title>Node4</title>
<g id="a_node2"><a xlink:href="class_shapes_1_1_circle.html#a4a839e20a887e598dca5b27492016771" target="_top" xlink:title="Info about cirlce. ">
<polygon fill="white" stroke="black" points="152,-0.5 152,-19.5 247,-19.5 247,-0.5 152,-0.5"/>
<text text-anchor="middle" x="199.5" y="-7.5" font-family="Helvetica,sans-Serif" font-size="10.00">Shapes.Circle.Info</text>
</a>
</g>
</g>
<!-- Node3&#45;&gt;Node4 -->
<g id="edge1" class="edge"><title>Node3&#45;&gt;Node4</title>
<path fill="none" stroke="midnightblue" d="M126.261,-10C134.928,-10 143.647,-10 151.88,-10"/>
<polygon fill="midnightblue" stroke="midnightblue" points="126.143,-6.5001 116.142,-10 126.142,-13.5001 126.143,-6.5001"/>
</g>
<!-- Node5 -->
<g id="node3" class="node"><title>Node5</title>
<g id="a_node3"><a xlink:href="class_shapes_1_1_program.html#a1efd94a5fcc1c59889d86eb3b6338126" target="_top" xlink:title="Calculations for circle. ">
<polygon fill="white" stroke="black" points="283,-0.5 283,-19.5 427,-19.5 427,-0.5 283,-0.5"/>
<text text-anchor="middle" x="355" y="-7.5" font-family="Helvetica,sans-Serif" font-size="10.00">Shapes.Program.DefineCircle</text>
</a>
</g>
</g>
<!-- Node4&#45;&gt;Node5 -->
<g id="edge2" class="edge"><title>Node4&#45;&gt;Node5</title>
<path fill="none" stroke="midnightblue" d="M257.596,-10C265.815,-10 274.356,-10 282.807,-10"/>
<polygon fill="midnightblue" stroke="midnightblue" points="257.389,-6.5001 247.389,-10 257.389,-13.5001 257.389,-6.5001"/>
</g>
<!-- Node6 -->
<g id="node4" class="node"><title>Node6</title>
<g id="a_node4"><a xlink:href="class_shapes_1_1_program.html#a594c0a6ca9384efead89054fe342664c" target="_top" xlink:title="Main function. ">
<polygon fill="white" stroke="black" points="463,-0.5 463,-19.5 576,-19.5 576,-0.5 463,-0.5"/>
<text text-anchor="middle" x="519.5" y="-7.5" font-family="Helvetica,sans-Serif" font-size="10.00">Shapes.Program.Main</text>
</a>
</g>
</g>
<!-- Node5&#45;&gt;Node6 -->
<g id="edge3" class="edge"><title>Node5&#45;&gt;Node6</title>
<path fill="none" stroke="midnightblue" d="M437.394,-10C446.033,-10 454.67,-10 462.914,-10"/>
<polygon fill="midnightblue" stroke="midnightblue" points="437.275,-6.5001 427.275,-10 437.275,-13.5001 437.275,-6.5001"/>
</g>
</g>
</svg>
