<?xml version="1.0" encoding="UTF-8" standalone="no"?>
<!DOCTYPE svg PUBLIC "-//W3C//DTD SVG 1.1//EN"
 "http://www.w3.org/Graphics/SVG/1.1/DTD/svg11.dtd">
<!-- Generated by graphviz version 2.38.0 (20140413.2041)
 -->
<!-- Title: Shapes.Triangle.CalculateS Pages: 1 -->
<svg width="784pt" height="28pt"
 viewBox="0.00 0.00 784.00 28.00" xmlns="http://www.w3.org/2000/svg" xmlns:xlink="http://www.w3.org/1999/xlink">
<g id="graph0" class="graph" transform="scale(1 1) rotate(0) translate(4 24)">
<title>Shapes.Triangle.CalculateS</title>
<polygon fill="white" stroke="none" points="-4,4 -4,-24 780,-24 780,4 -4,4"/>
<!-- Node3 -->
<g id="node1" class="node"><title>Node3</title>
<polygon fill="#bfbfbf" stroke="black" points="0,-0.5 0,-19.5 137,-19.5 137,-0.5 0,-0.5"/>
<text text-anchor="middle" x="68.5" y="-7.5" font-family="Helvetica,sans-Serif" font-size="10.00">Shapes.Triangle.CalculateS</text>
</g>
<!-- Node4 -->
<g id="node2" class="node"><title>Node4</title>
<g id="a_node2"><a xlink:href="class_shapes_1_1_triangle.html#ade3230a8638a1f82476375cbe7c8cdd4" target="_top" xlink:title="Calculation of triangle area. ">
<polygon fill="white" stroke="black" points="173,-0.5 173,-19.5 298,-19.5 298,-0.5 173,-0.5"/>
<text text-anchor="middle" x="235.5" y="-7.5" font-family="Helvetica,sans-Serif" font-size="10.00">Shapes.Triangle.GetArea</text>
</a>
</g>
</g>
<!-- Node3&#45;&gt;Node4 -->
<g id="edge1" class="edge"><title>Node3&#45;&gt;Node4</title>
<path fill="none" stroke="midnightblue" d="M147.153,-10C155.774,-10 164.466,-10 172.85,-10"/>
<polygon fill="midnightblue" stroke="midnightblue" points="147.088,-6.5001 137.088,-10 147.088,-13.5001 147.088,-6.5001"/>
</g>
<!-- Node5 -->
<g id="node3" class="node"><title>Node5</title>
<g id="a_node3"><a xlink:href="class_shapes_1_1_triangle.html#a18b9dc53dd62fedb7082f6316d6b8da4" target="_top" xlink:title="Info about triangle. ">
<polygon fill="white" stroke="black" points="334,-0.5 334,-19.5 438,-19.5 438,-0.5 334,-0.5"/>
<text text-anchor="middle" x="386" y="-7.5" font-family="Helvetica,sans-Serif" font-size="10.00">Shapes.Triangle.Info</text>
</a>
</g>
</g>
<!-- Node4&#45;&gt;Node5 -->
<g id="edge2" class="edge"><title>Node4&#45;&gt;Node5</title>
<path fill="none" stroke="midnightblue" d="M308.214,-10C316.797,-10 325.424,-10 333.638,-10"/>
<polygon fill="midnightblue" stroke="midnightblue" points="308.187,-6.5001 298.187,-10 308.187,-13.5001 308.187,-6.5001"/>
</g>
<!-- Node6 -->
<g id="node4" class="node"><title>Node6</title>
<g id="a_node4"><a xlink:href="class_shapes_1_1_program.html#ad8b6d8412545a58506aaaad285d34ff6" target="_top" xlink:title="Calculations for triangle. ">
<polygon fill="white" stroke="black" points="474,-0.5 474,-19.5 627,-19.5 627,-0.5 474,-0.5"/>
<text text-anchor="middle" x="550.5" y="-7.5" font-family="Helvetica,sans-Serif" font-size="10.00">Shapes.Program.DefineTriangle</text>
</a>
</g>
</g>
<!-- Node5&#45;&gt;Node6 -->
<g id="edge3" class="edge"><title>Node5&#45;&gt;Node6</title>
<path fill="none" stroke="midnightblue" d="M448.643,-10C456.859,-10 465.36,-10 473.781,-10"/>
<polygon fill="midnightblue" stroke="midnightblue" points="448.416,-6.5001 438.416,-10 448.416,-13.5001 448.416,-6.5001"/>
</g>
<!-- Node7 -->
<g id="node5" class="node"><title>Node7</title>
<g id="a_node5"><a xlink:href="class_shapes_1_1_program.html#a594c0a6ca9384efead89054fe342664c" target="_top" xlink:title="Main function. ">
<polygon fill="white" stroke="black" points="663,-0.5 663,-19.5 776,-19.5 776,-0.5 663,-0.5"/>
<text text-anchor="middle" x="719.5" y="-7.5" font-family="Helvetica,sans-Serif" font-size="10.00">Shapes.Program.Main</text>
</a>
</g>
</g>
<!-- Node6&#45;&gt;Node7 -->
<g id="edge4" class="edge"><title>Node6&#45;&gt;Node7</title>
<path fill="none" stroke="midnightblue" d="M637.26,-10C645.85,-10 654.409,-10 662.572,-10"/>
<polygon fill="midnightblue" stroke="midnightblue" points="637.182,-6.5001 627.182,-10 637.182,-13.5001 637.182,-6.5001"/>
</g>
</g>
</svg>
