<?xml version="1.0" encoding="UTF-8" standalone="no"?>
<!DOCTYPE svg PUBLIC "-//W3C//DTD SVG 1.1//EN"
 "http://www.w3.org/Graphics/SVG/1.1/DTD/svg11.dtd">
<!-- Generated by graphviz version 2.38.0 (20140413.2041)
 -->
<!-- Title: Shapes.Logger.Error Pages: 1 -->
<svg width="632pt" height="104pt"
 viewBox="0.00 0.00 632.00 104.00" xmlns="http://www.w3.org/2000/svg" xmlns:xlink="http://www.w3.org/1999/xlink">
<g id="graph0" class="graph" transform="scale(1 1) rotate(0) translate(4 100)">
<title>Shapes.Logger.Error</title>
<polygon fill="white" stroke="none" points="-4,4 -4,-100 628,-100 628,4 -4,4"/>
<!-- Node3 -->
<g id="node1" class="node"><title>Node3</title>
<polygon fill="#bfbfbf" stroke="black" points="0,-38.5 0,-57.5 106,-57.5 106,-38.5 0,-38.5"/>
<text text-anchor="middle" x="53" y="-45.5" font-family="Helvetica,sans-Serif" font-size="10.00">Shapes.Logger.Error</text>
</g>
<!-- Node4 -->
<g id="node2" class="node"><title>Node4</title>
<g id="a_node2"><a xlink:href="class_shapes_1_1_program.html#a80935e72ada1408dd10d9e268c920b2a" target="_top" xlink:title="Print info about error (red color) and write info in logger file. ">
<polygon fill="white" stroke="black" points="142,-38.5 142,-57.5 276,-57.5 276,-38.5 142,-38.5"/>
<text text-anchor="middle" x="209" y="-45.5" font-family="Helvetica,sans-Serif" font-size="10.00">Shapes.Program.PrintError</text>
</a>
</g>
</g>
<!-- Node3&#45;&gt;Node4 -->
<g id="edge1" class="edge"><title>Node3&#45;&gt;Node4</title>
<path fill="none" stroke="midnightblue" d="M116.305,-48C124.765,-48 133.47,-48 141.992,-48"/>
<polygon fill="midnightblue" stroke="midnightblue" points="116.137,-44.5001 106.137,-48 116.137,-51.5001 116.137,-44.5001"/>
</g>
<!-- Node5 -->
<g id="node3" class="node"><title>Node5</title>
<g id="a_node3"><a xlink:href="class_shapes_1_1_program.html#a1efd94a5fcc1c59889d86eb3b6338126" target="_top" xlink:title="Calculations for circle. ">
<polygon fill="white" stroke="black" points="321.5,-76.5 321.5,-95.5 465.5,-95.5 465.5,-76.5 321.5,-76.5"/>
<text text-anchor="middle" x="393.5" y="-83.5" font-family="Helvetica,sans-Serif" font-size="10.00">Shapes.Program.DefineCircle</text>
</a>
</g>
</g>
<!-- Node4&#45;&gt;Node5 -->
<g id="edge2" class="edge"><title>Node4&#45;&gt;Node5</title>
<path fill="none" stroke="midnightblue" d="M266.099,-59.681C291.98,-65.0699 322.315,-71.3861 346.779,-76.4799"/>
<polygon fill="midnightblue" stroke="midnightblue" points="266.556,-56.201 256.052,-57.589 265.129,-63.0541 266.556,-56.201"/>
</g>
<!-- Node7 -->
<g id="node5" class="node"><title>Node7</title>
<g id="a_node5"><a xlink:href="class_shapes_1_1_program.html#a8a1637f40366dbd731d40d851a9d56d5" target="_top" xlink:title="Calculations for triangle. ">
<polygon fill="white" stroke="black" points="312,-38.5 312,-57.5 475,-57.5 475,-38.5 312,-38.5"/>
<text text-anchor="middle" x="393.5" y="-45.5" font-family="Helvetica,sans-Serif" font-size="10.00">Shapes.Program.DefineRectangle</text>
</a>
</g>
</g>
<!-- Node4&#45;&gt;Node7 -->
<g id="edge4" class="edge"><title>Node4&#45;&gt;Node7</title>
<path fill="none" stroke="midnightblue" d="M286.357,-48C294.817,-48 303.452,-48 311.962,-48"/>
<polygon fill="midnightblue" stroke="midnightblue" points="286.145,-44.5001 276.145,-48 286.145,-51.5001 286.145,-44.5001"/>
</g>
<!-- Node8 -->
<g id="node6" class="node"><title>Node8</title>
<g id="a_node6"><a xlink:href="class_shapes_1_1_program.html#ad8b6d8412545a58506aaaad285d34ff6" target="_top" xlink:title="Calculations for triangle. ">
<polygon fill="white" stroke="black" points="317,-0.5 317,-19.5 470,-19.5 470,-0.5 317,-0.5"/>
<text text-anchor="middle" x="393.5" y="-7.5" font-family="Helvetica,sans-Serif" font-size="10.00">Shapes.Program.DefineTriangle</text>
</a>
</g>
</g>
<!-- Node4&#45;&gt;Node8 -->
<g id="edge6" class="edge"><title>Node4&#45;&gt;Node8</title>
<path fill="none" stroke="midnightblue" d="M266.099,-36.319C291.98,-30.9301 322.315,-24.6139 346.779,-19.5201"/>
<polygon fill="midnightblue" stroke="midnightblue" points="265.129,-32.9459 256.052,-38.411 266.556,-39.799 265.129,-32.9459"/>
</g>
<!-- Node6 -->
<g id="node4" class="node"><title>Node6</title>
<g id="a_node4"><a xlink:href="class_shapes_1_1_program.html#a594c0a6ca9384efead89054fe342664c" target="_top" xlink:title="Main function. ">
<polygon fill="white" stroke="black" points="511,-38.5 511,-57.5 624,-57.5 624,-38.5 511,-38.5"/>
<text text-anchor="middle" x="567.5" y="-45.5" font-family="Helvetica,sans-Serif" font-size="10.00">Shapes.Program.Main</text>
</a>
</g>
</g>
<!-- Node5&#45;&gt;Node6 -->
<g id="edge3" class="edge"><title>Node5&#45;&gt;Node6</title>
<path fill="none" stroke="midnightblue" d="M447.696,-74.2474C472.017,-68.8742 500.455,-62.5914 523.409,-57.5201"/>
<polygon fill="midnightblue" stroke="midnightblue" points="446.912,-70.836 437.903,-76.411 448.422,-77.6712 446.912,-70.836"/>
</g>
<!-- Node7&#45;&gt;Node6 -->
<g id="edge5" class="edge"><title>Node7&#45;&gt;Node6</title>
<path fill="none" stroke="midnightblue" d="M485.387,-48C494.046,-48 502.639,-48 510.813,-48"/>
<polygon fill="midnightblue" stroke="midnightblue" points="485.212,-44.5001 475.212,-48 485.212,-51.5001 485.212,-44.5001"/>
</g>
<!-- Node8&#45;&gt;Node6 -->
<g id="edge7" class="edge"><title>Node8&#45;&gt;Node6</title>
<path fill="none" stroke="midnightblue" d="M447.696,-21.7526C472.017,-27.1258 500.455,-33.4086 523.409,-38.4799"/>
<polygon fill="midnightblue" stroke="midnightblue" points="448.422,-18.3288 437.903,-19.589 446.912,-25.164 448.422,-18.3288"/>
</g>
</g>
</svg>
