<?xml version="1.0" encoding="UTF-8" standalone="no"?>
<!DOCTYPE svg PUBLIC "-//W3C//DTD SVG 1.1//EN"
 "http://www.w3.org/Graphics/SVG/1.1/DTD/svg11.dtd">
<!-- Generated by graphviz version 2.38.0 (20140413.2041)
 -->
<!-- Title: Shapes.Rectangle.GetPerimeter Pages: 1 -->
<svg width="663pt" height="28pt"
 viewBox="0.00 0.00 663.00 28.00" xmlns="http://www.w3.org/2000/svg" xmlns:xlink="http://www.w3.org/1999/xlink">
<g id="graph0" class="graph" transform="scale(1 1) rotate(0) translate(4 24)">
<title>Shapes.Rectangle.GetPerimeter</title>
<polygon fill="white" stroke="none" points="-4,4 -4,-24 659,-24 659,4 -4,4"/>
<!-- Node8 -->
<g id="node1" class="node"><title>Node8</title>
<polygon fill="#bfbfbf" stroke="black" points="0,-0.5 0,-19.5 157,-19.5 157,-0.5 0,-0.5"/>
<text text-anchor="middle" x="78.5" y="-7.5" font-family="Helvetica,sans-Serif" font-size="10.00">Shapes.Rectangle.GetPerimeter</text>
</g>
<!-- Node9 -->
<g id="node2" class="node"><title>Node9</title>
<g id="a_node2"><a xlink:href="class_shapes_1_1_rectangle.html#aad9c40eb69f41f219e7f4edc67d54792" target="_top" xlink:title="Info about rectangle. ">
<polygon fill="white" stroke="black" points="193,-0.5 193,-19.5 307,-19.5 307,-0.5 193,-0.5"/>
<text text-anchor="middle" x="250" y="-7.5" font-family="Helvetica,sans-Serif" font-size="10.00">Shapes.Rectangle.Info</text>
</a>
</g>
</g>
<!-- Node8&#45;&gt;Node9 -->
<g id="edge1" class="edge"><title>Node8&#45;&gt;Node9</title>
<path fill="none" stroke="midnightblue" d="M167.461,-10C176.114,-10 184.721,-10 192.923,-10"/>
<polygon fill="midnightblue" stroke="midnightblue" points="167.305,-6.5001 157.305,-10 167.305,-13.5001 167.305,-6.5001"/>
</g>
<!-- Node10 -->
<g id="node3" class="node"><title>Node10</title>
<g id="a_node3"><a xlink:href="class_shapes_1_1_program.html#a8a1637f40366dbd731d40d851a9d56d5" target="_top" xlink:title="Calculations for triangle. ">
<polygon fill="white" stroke="black" points="343,-0.5 343,-19.5 506,-19.5 506,-0.5 343,-0.5"/>
<text text-anchor="middle" x="424.5" y="-7.5" font-family="Helvetica,sans-Serif" font-size="10.00">Shapes.Program.DefineRectangle</text>
</a>
</g>
</g>
<!-- Node9&#45;&gt;Node10 -->
<g id="edge2" class="edge"><title>Node9&#45;&gt;Node10</title>
<path fill="none" stroke="midnightblue" d="M317.082,-10C325.47,-10 334.129,-10 342.715,-10"/>
<polygon fill="midnightblue" stroke="midnightblue" points="317.006,-6.5001 307.006,-10 317.006,-13.5001 317.006,-6.5001"/>
</g>
<!-- Node11 -->
<g id="node4" class="node"><title>Node11</title>
<g id="a_node4"><a xlink:href="class_shapes_1_1_program.html#a594c0a6ca9384efead89054fe342664c" target="_top" xlink:title="Main function. ">
<polygon fill="white" stroke="black" points="542,-0.5 542,-19.5 655,-19.5 655,-0.5 542,-0.5"/>
<text text-anchor="middle" x="598.5" y="-7.5" font-family="Helvetica,sans-Serif" font-size="10.00">Shapes.Program.Main</text>
</a>
</g>
</g>
<!-- Node10&#45;&gt;Node11 -->
<g id="edge3" class="edge"><title>Node10&#45;&gt;Node11</title>
<path fill="none" stroke="midnightblue" d="M516.387,-10C525.046,-10 533.639,-10 541.813,-10"/>
<polygon fill="midnightblue" stroke="midnightblue" points="516.212,-6.5001 506.212,-10 516.212,-13.5001 516.212,-6.5001"/>
</g>
</g>
</svg>
