<?xml version="1.0" encoding="UTF-8" standalone="no"?>
<!DOCTYPE svg PUBLIC "-//W3C//DTD SVG 1.1//EN"
 "http://www.w3.org/Graphics/SVG/1.1/DTD/svg11.dtd">
<!-- Generated by graphviz version 2.38.0 (20140413.2041)
 -->
<!-- Title: Shapes.Triangle.Info Pages: 1 -->
<svg width="468pt" height="66pt"
 viewBox="0.00 0.00 468.00 66.00" xmlns="http://www.w3.org/2000/svg" xmlns:xlink="http://www.w3.org/1999/xlink">
<g id="graph0" class="graph" transform="scale(1 1) rotate(0) translate(4 62)">
<title>Shapes.Triangle.Info</title>
<polygon fill="white" stroke="none" points="-4,4 -4,-62 464,-62 464,4 -4,4"/>
<!-- Node19 -->
<g id="node1" class="node"><title>Node19</title>
<polygon fill="#bfbfbf" stroke="black" points="0,-19.5 0,-38.5 104,-38.5 104,-19.5 0,-19.5"/>
<text text-anchor="middle" x="52" y="-26.5" font-family="Helvetica,sans-Serif" font-size="10.00">Shapes.Triangle.Info</text>
</g>
<!-- Node20 -->
<g id="node2" class="node"><title>Node20</title>
<g id="a_node2"><a xlink:href="class_shapes_1_1_triangle.html#ade3230a8638a1f82476375cbe7c8cdd4" target="_top" xlink:title="Calculation of triangle area. ">
<polygon fill="white" stroke="black" points="151,-38.5 151,-57.5 276,-57.5 276,-38.5 151,-38.5"/>
<text text-anchor="middle" x="213.5" y="-45.5" font-family="Helvetica,sans-Serif" font-size="10.00">Shapes.Triangle.GetArea</text>
</a>
</g>
</g>
<!-- Node19&#45;&gt;Node20 -->
<g id="edge1" class="edge"><title>Node19&#45;&gt;Node20</title>
<path fill="none" stroke="midnightblue" d="M104.345,-35.1163C115.942,-36.4978 128.461,-37.989 140.725,-39.45"/>
<polygon fill="midnightblue" stroke="midnightblue" points="140.598,-42.9595 150.942,-40.6671 141.426,-36.0087 140.598,-42.9595"/>
</g>
<!-- Node22 -->
<g id="node4" class="node"><title>Node22</title>
<g id="a_node4"><a xlink:href="class_shapes_1_1_triangle.html#a08c95ff021c8bff6f6299b2bf5228be7" target="_top" xlink:title="Calculation of triangle perimeter. ">
<polygon fill="white" stroke="black" points="140,-0.5 140,-19.5 287,-19.5 287,-0.5 140,-0.5"/>
<text text-anchor="middle" x="213.5" y="-7.5" font-family="Helvetica,sans-Serif" font-size="10.00">Shapes.Triangle.GetPerimeter</text>
</a>
</g>
</g>
<!-- Node19&#45;&gt;Node22 -->
<g id="edge3" class="edge"><title>Node19&#45;&gt;Node22</title>
<path fill="none" stroke="midnightblue" d="M104.345,-22.8837C112.461,-21.9168 121.029,-20.8962 129.646,-19.8698"/>
<polygon fill="midnightblue" stroke="midnightblue" points="130.243,-23.3235 139.759,-18.6651 129.415,-16.3726 130.243,-23.3235"/>
</g>
<!-- Node21 -->
<g id="node3" class="node"><title>Node21</title>
<g id="a_node3"><a xlink:href="class_shapes_1_1_triangle.html#a09cd259936953b9d993837a0bb1bd5b4" target="_top" xlink:title="Calculation S value (Heron formula). ">
<polygon fill="white" stroke="black" points="323,-38.5 323,-57.5 460,-57.5 460,-38.5 323,-38.5"/>
<text text-anchor="middle" x="391.5" y="-45.5" font-family="Helvetica,sans-Serif" font-size="10.00">Shapes.Triangle.CalculateS</text>
</a>
</g>
</g>
<!-- Node20&#45;&gt;Node21 -->
<g id="edge2" class="edge"><title>Node20&#45;&gt;Node21</title>
<path fill="none" stroke="midnightblue" d="M276.056,-48C287.905,-48 300.459,-48 312.743,-48"/>
<polygon fill="midnightblue" stroke="midnightblue" points="312.977,-51.5001 322.977,-48 312.977,-44.5001 312.977,-51.5001"/>
</g>
</g>
</svg>
