<?xml version="1.0" encoding="UTF-8" standalone="no"?>
<!DOCTYPE svg PUBLIC "-//W3C//DTD SVG 1.1//EN"
 "http://www.w3.org/Graphics/SVG/1.1/DTD/svg11.dtd">
<!-- Generated by graphviz version 2.38.0 (20140413.2041)
 -->
<!-- Title: Shapes.Rectangle Pages: 1 -->
<svg width="104pt" height="226pt"
 viewBox="0.00 0.00 104.00 226.00" xmlns="http://www.w3.org/2000/svg" xmlns:xlink="http://www.w3.org/1999/xlink">
<g id="graph0" class="graph" transform="scale(1 1) rotate(0) translate(4 222)">
<title>Shapes.Rectangle</title>
<polygon fill="white" stroke="none" points="-4,4 -4,-222 100,-222 100,4 -4,4"/>
<!-- Node2 -->
<g id="node1" class="node"><title>Node2</title>
<polygon fill="#bfbfbf" stroke="black" points="0,-0.5 0,-101.5 96,-101.5 96,-0.5 0,-0.5"/>
<text text-anchor="middle" x="48" y="-89.5" font-family="Helvetica,sans-Serif" font-size="10.00">Shapes.Rectangle</text>
<polyline fill="none" stroke="black" points="0,-82.5 96,-82.5 "/>
<text text-anchor="start" x="8" y="-70.5" font-family="Helvetica,sans-Serif" font-size="10.00">&#45; a</text>
<text text-anchor="start" x="8" y="-59.5" font-family="Helvetica,sans-Serif" font-size="10.00">&#45; b</text>
<polyline fill="none" stroke="black" points="0,-52.5 96,-52.5 "/>
<text text-anchor="start" x="8" y="-40.5" font-family="Helvetica,sans-Serif" font-size="10.00">+ Rectangle()</text>
<text text-anchor="start" x="8" y="-29.5" font-family="Helvetica,sans-Serif" font-size="10.00">+ GetArea()</text>
<text text-anchor="start" x="8" y="-18.5" font-family="Helvetica,sans-Serif" font-size="10.00">+ GetPerimeter()</text>
<text text-anchor="start" x="8" y="-7.5" font-family="Helvetica,sans-Serif" font-size="10.00">+ Info()</text>
</g>
<!-- Node3 -->
<g id="node2" class="node"><title>Node3</title>
<g id="a_node2"><a xlink:href="interface_shapes_1_1_i_shape.html" target="_top" xlink:title="Interface for shapes classes. ">
<polygon fill="white" stroke="black" points="3.5,-138.5 3.5,-217.5 92.5,-217.5 92.5,-138.5 3.5,-138.5"/>
<text text-anchor="middle" x="48" y="-205.5" font-family="Helvetica,sans-Serif" font-size="10.00">IShape</text>
<polyline fill="none" stroke="black" points="3.5,-198.5 92.5,-198.5 "/>
<text text-anchor="middle" x="48" y="-186.5" font-family="Helvetica,sans-Serif" font-size="10.00"> </text>
<polyline fill="none" stroke="black" points="3.5,-179.5 92.5,-179.5 "/>
<text text-anchor="start" x="11.5" y="-167.5" font-family="Helvetica,sans-Serif" font-size="10.00">+ GetArea()</text>
<text text-anchor="start" x="11.5" y="-156.5" font-family="Helvetica,sans-Serif" font-size="10.00">+ GetPerimeter()</text>
<text text-anchor="start" x="11.5" y="-145.5" font-family="Helvetica,sans-Serif" font-size="10.00">+ Info()</text>
</a>
</g>
</g>
<!-- Node3&#45;&gt;Node2 -->
<g id="edge1" class="edge"><title>Node3&#45;&gt;Node2</title>
<path fill="none" stroke="midnightblue" d="M48,-128.406C48,-119.639 48,-110.488 48,-101.691"/>
<polygon fill="none" stroke="midnightblue" points="44.5001,-128.476 48,-138.476 51.5001,-128.476 44.5001,-128.476"/>
</g>
</g>
</svg>
