<?xml version="1.0" encoding="UTF-8" standalone="no"?>
<!DOCTYPE svg PUBLIC "-//W3C//DTD SVG 1.1//EN"
 "http://www.w3.org/Graphics/SVG/1.1/DTD/svg11.dtd">
<!-- Generated by graphviz version 2.38.0 (20140413.2041)
 -->
<!-- Title: Shapes.Rectangle.Info Pages: 1 -->
<svg width="470pt" height="28pt"
 viewBox="0.00 0.00 470.00 28.00" xmlns="http://www.w3.org/2000/svg" xmlns:xlink="http://www.w3.org/1999/xlink">
<g id="graph0" class="graph" transform="scale(1 1) rotate(0) translate(4 24)">
<title>Shapes.Rectangle.Info</title>
<polygon fill="white" stroke="none" points="-4,4 -4,-24 466,-24 466,4 -4,4"/>
<!-- Node15 -->
<g id="node1" class="node"><title>Node15</title>
<polygon fill="#bfbfbf" stroke="black" points="0,-0.5 0,-19.5 114,-19.5 114,-0.5 0,-0.5"/>
<text text-anchor="middle" x="57" y="-7.5" font-family="Helvetica,sans-Serif" font-size="10.00">Shapes.Rectangle.Info</text>
</g>
<!-- Node16 -->
<g id="node2" class="node"><title>Node16</title>
<g id="a_node2"><a xlink:href="class_shapes_1_1_program.html#a8a1637f40366dbd731d40d851a9d56d5" target="_top" xlink:title="Calculations for triangle. ">
<polygon fill="white" stroke="black" points="150,-0.5 150,-19.5 313,-19.5 313,-0.5 150,-0.5"/>
<text text-anchor="middle" x="231.5" y="-7.5" font-family="Helvetica,sans-Serif" font-size="10.00">Shapes.Program.DefineRectangle</text>
</a>
</g>
</g>
<!-- Node15&#45;&gt;Node16 -->
<g id="edge1" class="edge"><title>Node15&#45;&gt;Node16</title>
<path fill="none" stroke="midnightblue" d="M124.082,-10C132.47,-10 141.129,-10 149.715,-10"/>
<polygon fill="midnightblue" stroke="midnightblue" points="124.006,-6.5001 114.006,-10 124.006,-13.5001 124.006,-6.5001"/>
</g>
<!-- Node17 -->
<g id="node3" class="node"><title>Node17</title>
<g id="a_node3"><a xlink:href="class_shapes_1_1_program.html#a594c0a6ca9384efead89054fe342664c" target="_top" xlink:title="Main function. ">
<polygon fill="white" stroke="black" points="349,-0.5 349,-19.5 462,-19.5 462,-0.5 349,-0.5"/>
<text text-anchor="middle" x="405.5" y="-7.5" font-family="Helvetica,sans-Serif" font-size="10.00">Shapes.Program.Main</text>
</a>
</g>
</g>
<!-- Node16&#45;&gt;Node17 -->
<g id="edge2" class="edge"><title>Node16&#45;&gt;Node17</title>
<path fill="none" stroke="midnightblue" d="M323.387,-10C332.046,-10 340.639,-10 348.813,-10"/>
<polygon fill="midnightblue" stroke="midnightblue" points="323.212,-6.5001 313.212,-10 323.212,-13.5001 323.212,-6.5001"/>
</g>
</g>
</svg>
