<?xml version="1.0" encoding="UTF-8" standalone="no"?>
<!DOCTYPE svg PUBLIC "-//W3C//DTD SVG 1.1//EN"
 "http://www.w3.org/Graphics/SVG/1.1/DTD/svg11.dtd">
<!-- Generated by graphviz version 2.38.0 (20140413.2041)
 -->
<!-- Title: Shapes.Program.DefineRectangle Pages: 1 -->
<svg width="720pt" height="123pt"
 viewBox="0.00 0.00 720.00 123.00" xmlns="http://www.w3.org/2000/svg" xmlns:xlink="http://www.w3.org/1999/xlink">
<g id="graph0" class="graph" transform="scale(1 1) rotate(0) translate(4 119)">
<title>Shapes.Program.DefineRectangle</title>
<polygon fill="white" stroke="none" points="-4,4 -4,-119 716,-119 716,4 -4,4"/>
<!-- Node18 -->
<g id="node1" class="node"><title>Node18</title>
<polygon fill="#bfbfbf" stroke="black" points="0,-57.5 0,-76.5 163,-76.5 163,-57.5 0,-57.5"/>
<text text-anchor="middle" x="81.5" y="-64.5" font-family="Helvetica,sans-Serif" font-size="10.00">Shapes.Program.DefineRectangle</text>
</g>
<!-- Node19 -->
<g id="node2" class="node"><title>Node19</title>
<g id="a_node2"><a xlink:href="class_shapes_1_1_program.html#ad2616355773ad5960818471fd199eddc" target="_top" xlink:title="Get number from console. ">
<polygon fill="white" stroke="black" points="199.5,-95.5 199.5,-114.5 332.5,-114.5 332.5,-95.5 199.5,-95.5"/>
<text text-anchor="middle" x="266" y="-102.5" font-family="Helvetica,sans-Serif" font-size="10.00">Shapes.Program.GetValue</text>
</a>
</g>
</g>
<!-- Node18&#45;&gt;Node19 -->
<g id="edge1" class="edge"><title>Node18&#45;&gt;Node19</title>
<path fill="none" stroke="midnightblue" d="M128.552,-76.589C153.069,-81.6939 183.41,-88.0113 209.25,-93.3918"/>
<polygon fill="midnightblue" stroke="midnightblue" points="208.775,-96.8679 219.279,-95.4799 210.202,-90.0149 208.775,-96.8679"/>
</g>
<!-- Node20 -->
<g id="node3" class="node"><title>Node20</title>
<g id="a_node3"><a xlink:href="class_shapes_1_1_rectangle.html#aad9c40eb69f41f219e7f4edc67d54792" target="_top" xlink:title="Info about rectangle. ">
<polygon fill="white" stroke="black" points="209,-57.5 209,-76.5 323,-76.5 323,-57.5 209,-57.5"/>
<text text-anchor="middle" x="266" y="-64.5" font-family="Helvetica,sans-Serif" font-size="10.00">Shapes.Rectangle.Info</text>
</a>
</g>
</g>
<!-- Node18&#45;&gt;Node20 -->
<g id="edge2" class="edge"><title>Node18&#45;&gt;Node20</title>
<path fill="none" stroke="midnightblue" d="M163.078,-67C175.043,-67 187.255,-67 198.877,-67"/>
<polygon fill="midnightblue" stroke="midnightblue" points="198.918,-70.5001 208.918,-67 198.918,-63.5001 198.918,-70.5001"/>
</g>
<!-- Node23 -->
<g id="node6" class="node"><title>Node23</title>
<g id="a_node6"><a xlink:href="class_shapes_1_1_program.html#a80935e72ada1408dd10d9e268c920b2a" target="_top" xlink:title="Print info about error (red color) and write info in logger file. ">
<polygon fill="white" stroke="black" points="199,-19.5 199,-38.5 333,-38.5 333,-19.5 199,-19.5"/>
<text text-anchor="middle" x="266" y="-26.5" font-family="Helvetica,sans-Serif" font-size="10.00">Shapes.Program.PrintError</text>
</a>
</g>
</g>
<!-- Node18&#45;&gt;Node23 -->
<g id="edge5" class="edge"><title>Node18&#45;&gt;Node23</title>
<path fill="none" stroke="midnightblue" d="M128.552,-57.411C153.069,-52.3061 183.41,-45.9887 209.25,-40.6082"/>
<polygon fill="midnightblue" stroke="midnightblue" points="210.202,-43.9851 219.279,-38.5201 208.775,-37.1321 210.202,-43.9851"/>
</g>
<!-- Node21 -->
<g id="node4" class="node"><title>Node21</title>
<g id="a_node4"><a xlink:href="class_shapes_1_1_rectangle.html#ad12c57a5737508e680bae0a124be808b" target="_top" xlink:title="Calculation of rectangle area. ">
<polygon fill="white" stroke="black" points="380,-95.5 380,-114.5 515,-114.5 515,-95.5 380,-95.5"/>
<text text-anchor="middle" x="447.5" y="-102.5" font-family="Helvetica,sans-Serif" font-size="10.00">Shapes.Rectangle.GetArea</text>
</a>
</g>
</g>
<!-- Node20&#45;&gt;Node21 -->
<g id="edge3" class="edge"><title>Node20&#45;&gt;Node21</title>
<path fill="none" stroke="midnightblue" d="M312.295,-76.589C336.409,-81.6939 366.251,-88.0113 391.667,-93.3918"/>
<polygon fill="midnightblue" stroke="midnightblue" points="391.022,-96.8329 401.53,-95.4799 392.472,-89.9847 391.022,-96.8329"/>
</g>
<!-- Node22 -->
<g id="node5" class="node"><title>Node22</title>
<g id="a_node5"><a xlink:href="class_shapes_1_1_rectangle.html#a61456928420e1d61a4bbb6c89a5fb9d7" target="_top" xlink:title="Calculation of rectangle perimeter. ">
<polygon fill="white" stroke="black" points="369,-57.5 369,-76.5 526,-76.5 526,-57.5 369,-57.5"/>
<text text-anchor="middle" x="447.5" y="-64.5" font-family="Helvetica,sans-Serif" font-size="10.00">Shapes.Rectangle.GetPerimeter</text>
</a>
</g>
</g>
<!-- Node20&#45;&gt;Node22 -->
<g id="edge4" class="edge"><title>Node20&#45;&gt;Node22</title>
<path fill="none" stroke="midnightblue" d="M323.302,-67C334.548,-67 346.611,-67 358.629,-67"/>
<polygon fill="midnightblue" stroke="midnightblue" points="358.695,-70.5001 368.694,-67 358.694,-63.5001 358.695,-70.5001"/>
</g>
<!-- Node24 -->
<g id="node7" class="node"><title>Node24</title>
<g id="a_node7"><a xlink:href="class_shapes_1_1_logger.html#acb7738fb2c18b2c3b0e312bcb005b29b" target="_top" xlink:title="Bulid error message to write to file. ">
<polygon fill="white" stroke="black" points="394.5,-19.5 394.5,-38.5 500.5,-38.5 500.5,-19.5 394.5,-19.5"/>
<text text-anchor="middle" x="447.5" y="-26.5" font-family="Helvetica,sans-Serif" font-size="10.00">Shapes.Logger.Error</text>
</a>
</g>
</g>
<!-- Node23&#45;&gt;Node24 -->
<g id="edge6" class="edge"><title>Node23&#45;&gt;Node24</title>
<path fill="none" stroke="midnightblue" d="M333.074,-29C349.796,-29 367.699,-29 384.227,-29"/>
<polygon fill="midnightblue" stroke="midnightblue" points="384.317,-32.5001 394.316,-29 384.316,-25.5001 384.317,-32.5001"/>
</g>
<!-- Node25 -->
<g id="node8" class="node"><title>Node25</title>
<g id="a_node8"><a xlink:href="class_shapes_1_1_logger.html#a2dda77f7f9cf3efb3500d30d5e5d82d2" target="_top" xlink:title="Get actual date nd time and build time stamp for logger ">
<polygon fill="white" stroke="black" points="562,-38.5 562,-57.5 712,-57.5 712,-38.5 562,-38.5"/>
<text text-anchor="middle" x="637" y="-45.5" font-family="Helvetica,sans-Serif" font-size="10.00">Shapes.Logger.GetTimeStamp</text>
</a>
</g>
</g>
<!-- Node24&#45;&gt;Node25 -->
<g id="edge7" class="edge"><title>Node24&#45;&gt;Node25</title>
<path fill="none" stroke="midnightblue" d="M500.729,-34.2926C516.581,-35.8989 534.417,-37.7063 551.81,-39.4688"/>
<polygon fill="midnightblue" stroke="midnightblue" points="551.679,-42.9733 561.981,-40.4994 552.385,-36.009 551.679,-42.9733"/>
</g>
<!-- Node26 -->
<g id="node9" class="node"><title>Node26</title>
<g id="a_node9"><a xlink:href="class_shapes_1_1_logger.html#aa96be1c3aa242aaa46000eabab3b8901" target="_top" xlink:title="Append logger text to file. ">
<polygon fill="white" stroke="black" points="570,-0.5 570,-19.5 704,-19.5 704,-0.5 570,-0.5"/>
<text text-anchor="middle" x="637" y="-7.5" font-family="Helvetica,sans-Serif" font-size="10.00">Shapes.Logger.WriteToFile</text>
</a>
</g>
</g>
<!-- Node24&#45;&gt;Node26 -->
<g id="edge8" class="edge"><title>Node24&#45;&gt;Node26</title>
<path fill="none" stroke="midnightblue" d="M500.729,-23.7074C519.083,-21.8476 540.098,-19.718 560.005,-17.7009"/>
<polygon fill="midnightblue" stroke="midnightblue" points="560.385,-21.1803 569.981,-16.6899 559.679,-14.216 560.385,-21.1803"/>
</g>
</g>
</svg>
