<?xml version="1.0" encoding="UTF-8" standalone="no"?>
<!DOCTYPE svg PUBLIC "-//W3C//DTD SVG 1.1//EN"
 "http://www.w3.org/Graphics/SVG/1.1/DTD/svg11.dtd">
<!-- Generated by graphviz version 2.38.0 (20140413.2041)
 -->
<!-- Title: Shapes.Program.Main Pages: 1 -->
<svg width="877pt" height="275pt"
 viewBox="0.00 0.00 877.00 275.00" xmlns="http://www.w3.org/2000/svg" xmlns:xlink="http://www.w3.org/1999/xlink">
<g id="graph0" class="graph" transform="scale(1 1) rotate(0) translate(4 271)">
<title>Shapes.Program.Main</title>
<polygon fill="white" stroke="none" points="-4,4 -4,-271 873,-271 873,4 -4,4"/>
<!-- Node47 -->
<g id="node1" class="node"><title>Node47</title>
<polygon fill="#bfbfbf" stroke="black" points="0,-152.5 0,-171.5 113,-171.5 113,-152.5 0,-152.5"/>
<text text-anchor="middle" x="56.5" y="-159.5" font-family="Helvetica,sans-Serif" font-size="10.00">Shapes.Program.Main</text>
</g>
<!-- Node48 -->
<g id="node2" class="node"><title>Node48</title>
<g id="a_node2"><a xlink:href="class_shapes_1_1_program.html#a9ade4881c2d5a9dbfb5f61769fd2dd81" target="_top" xlink:title="Clear screen and show main menu. ">
<polygon fill="white" stroke="black" points="163,-247.5 163,-266.5 300,-266.5 300,-247.5 163,-247.5"/>
<text text-anchor="middle" x="231.5" y="-254.5" font-family="Helvetica,sans-Serif" font-size="10.00">Shapes.Program.PrintMenu</text>
</a>
</g>
</g>
<!-- Node47&#45;&gt;Node48 -->
<g id="edge1" class="edge"><title>Node47&#45;&gt;Node48</title>
<path fill="none" stroke="midnightblue" d="M66.0786,-171.582C81.1826,-187.836 114.231,-220.727 149,-238 153.879,-240.424 159.078,-242.546 164.398,-244.401"/>
<polygon fill="midnightblue" stroke="midnightblue" points="163.471,-247.779 174.061,-247.462 165.585,-241.106 163.471,-247.779"/>
</g>
<!-- Node49 -->
<g id="node3" class="node"><title>Node49</title>
<g id="a_node3"><a xlink:href="class_shapes_1_1_program.html#ad96be31cce08b81c90779e7754eb6b32" target="_top" xlink:title="Terminate application. ">
<polygon fill="white" stroke="black" points="149,-209.5 149,-228.5 314,-228.5 314,-209.5 149,-209.5"/>
<text text-anchor="middle" x="231.5" y="-216.5" font-family="Helvetica,sans-Serif" font-size="10.00">Shapes.Program.CloseApplication</text>
</a>
</g>
</g>
<!-- Node47&#45;&gt;Node49 -->
<g id="edge2" class="edge"><title>Node47&#45;&gt;Node49</title>
<path fill="none" stroke="midnightblue" d="M77.8507,-171.589C96.1577,-179.94 123.948,-191.938 149,-200 156.952,-202.559 165.444,-204.927 173.832,-207.061"/>
<polygon fill="midnightblue" stroke="midnightblue" points="173.045,-210.472 183.591,-209.455 174.713,-203.673 173.045,-210.472"/>
</g>
<!-- Node50 -->
<g id="node4" class="node"><title>Node50</title>
<g id="a_node4"><a xlink:href="class_shapes_1_1_program.html#a1efd94a5fcc1c59889d86eb3b6338126" target="_top" xlink:title="Calculations for circle. ">
<polygon fill="white" stroke="black" points="159.5,-95.5 159.5,-114.5 303.5,-114.5 303.5,-95.5 159.5,-95.5"/>
<text text-anchor="middle" x="231.5" y="-102.5" font-family="Helvetica,sans-Serif" font-size="10.00">Shapes.Program.DefineCircle</text>
</a>
</g>
</g>
<!-- Node47&#45;&gt;Node50 -->
<g id="edge3" class="edge"><title>Node47&#45;&gt;Node50</title>
<path fill="none" stroke="midnightblue" d="M77.8507,-152.411C96.1577,-144.06 123.948,-132.062 149,-124 156.952,-121.441 165.444,-119.073 173.832,-116.939"/>
<polygon fill="midnightblue" stroke="midnightblue" points="174.713,-120.327 183.591,-114.545 173.045,-113.528 174.713,-120.327"/>
</g>
<!-- Node60 -->
<g id="node14" class="node"><title>Node60</title>
<g id="a_node14"><a xlink:href="class_shapes_1_1_program.html#ad8b6d8412545a58506aaaad285d34ff6" target="_top" xlink:title="Calculations for triangle. ">
<polygon fill="white" stroke="black" points="155,-133.5 155,-152.5 308,-152.5 308,-133.5 155,-133.5"/>
<text text-anchor="middle" x="231.5" y="-140.5" font-family="Helvetica,sans-Serif" font-size="10.00">Shapes.Program.DefineTriangle</text>
</a>
</g>
</g>
<!-- Node47&#45;&gt;Node60 -->
<g id="edge13" class="edge"><title>Node47&#45;&gt;Node60</title>
<path fill="none" stroke="midnightblue" d="M113.191,-155.884C123.221,-154.782 133.887,-153.611 144.542,-152.44"/>
<polygon fill="midnightblue" stroke="midnightblue" points="145.176,-155.892 154.734,-151.321 144.411,-148.934 145.176,-155.892"/>
</g>
<!-- Node65 -->
<g id="node19" class="node"><title>Node65</title>
<g id="a_node19"><a xlink:href="class_shapes_1_1_program.html#a8a1637f40366dbd731d40d851a9d56d5" target="_top" xlink:title="Calculations for triangle. ">
<polygon fill="white" stroke="black" points="150,-171.5 150,-190.5 313,-190.5 313,-171.5 150,-171.5"/>
<text text-anchor="middle" x="231.5" y="-178.5" font-family="Helvetica,sans-Serif" font-size="10.00">Shapes.Program.DefineRectangle</text>
</a>
</g>
</g>
<!-- Node47&#45;&gt;Node65 -->
<g id="edge20" class="edge"><title>Node47&#45;&gt;Node65</title>
<path fill="none" stroke="midnightblue" d="M113.191,-168.116C121.659,-169.046 130.581,-170.026 139.566,-171.013"/>
<polygon fill="midnightblue" stroke="midnightblue" points="139.396,-174.515 149.718,-172.128 140.16,-167.557 139.396,-174.515"/>
</g>
<!-- Node69 -->
<g id="node23" class="node"><title>Node69</title>
<g id="a_node23"><a xlink:href="class_shapes_1_1_program.html#aafa1ef87a276e3cde4ec2b83893e1bdf" target="_top" xlink:title="Dodawanie dwoch liczb ">
<polygon fill="white" stroke="black" points="176.5,-57.5 176.5,-76.5 286.5,-76.5 286.5,-57.5 176.5,-57.5"/>
<text text-anchor="middle" x="231.5" y="-64.5" font-family="Helvetica,sans-Serif" font-size="10.00">Shapes.Program.Add</text>
</a>
</g>
</g>
<!-- Node47&#45;&gt;Node69 -->
<g id="edge26" class="edge"><title>Node47&#45;&gt;Node69</title>
<path fill="none" stroke="midnightblue" d="M66.0786,-152.418C81.1826,-136.164 114.231,-103.273 149,-86 154.55,-83.2427 160.514,-80.8767 166.598,-78.8482"/>
<polygon fill="midnightblue" stroke="midnightblue" points="167.664,-82.1824 176.218,-75.9307 165.633,-75.4837 167.664,-82.1824"/>
</g>
<!-- Node51 -->
<g id="node5" class="node"><title>Node51</title>
<g id="a_node5"><a xlink:href="class_shapes_1_1_program.html#ad2616355773ad5960818471fd199eddc" target="_top" xlink:title="Get number from console. ">
<polygon fill="white" stroke="black" points="353.5,-95.5 353.5,-114.5 486.5,-114.5 486.5,-95.5 353.5,-95.5"/>
<text text-anchor="middle" x="420" y="-102.5" font-family="Helvetica,sans-Serif" font-size="10.00">Shapes.Program.GetValue</text>
</a>
</g>
</g>
<!-- Node50&#45;&gt;Node51 -->
<g id="edge4" class="edge"><title>Node50&#45;&gt;Node51</title>
<path fill="none" stroke="midnightblue" d="M303.54,-105C316.455,-105 329.973,-105 343.023,-105"/>
<polygon fill="midnightblue" stroke="midnightblue" points="343.369,-108.5 353.369,-105 343.369,-101.5 343.369,-108.5"/>
</g>
<!-- Node52 -->
<g id="node6" class="node"><title>Node52</title>
<g id="a_node6"><a xlink:href="class_shapes_1_1_program.html#aa1b54cd7d170608b6635f0fd2002e4a4" target="_top" xlink:title="Print result (yellow color). ">
<polygon fill="white" stroke="black" points="350,-57.5 350,-76.5 490,-76.5 490,-57.5 350,-57.5"/>
<text text-anchor="middle" x="420" y="-64.5" font-family="Helvetica,sans-Serif" font-size="10.00">Shapes.Program.PrintResult</text>
</a>
</g>
</g>
<!-- Node50&#45;&gt;Node52 -->
<g id="edge5" class="edge"><title>Node50&#45;&gt;Node52</title>
<path fill="none" stroke="midnightblue" d="M279.562,-95.411C304.727,-90.2835 335.896,-83.9328 362.379,-78.5368"/>
<polygon fill="midnightblue" stroke="midnightblue" points="363.177,-81.9462 372.277,-76.5201 361.779,-75.0871 363.177,-81.9462"/>
</g>
<!-- Node53 -->
<g id="node7" class="node"><title>Node53</title>
<g id="a_node7"><a xlink:href="class_shapes_1_1_circle.html#a4a839e20a887e598dca5b27492016771" target="_top" xlink:title="Info about cirlce. ">
<polygon fill="white" stroke="black" points="372.5,-19.5 372.5,-38.5 467.5,-38.5 467.5,-19.5 372.5,-19.5"/>
<text text-anchor="middle" x="420" y="-26.5" font-family="Helvetica,sans-Serif" font-size="10.00">Shapes.Circle.Info</text>
</a>
</g>
</g>
<!-- Node50&#45;&gt;Node53 -->
<g id="edge6" class="edge"><title>Node50&#45;&gt;Node53</title>
<path fill="none" stroke="midnightblue" d="M291.939,-95.4702C299.634,-93.0052 307.194,-89.9032 314,-86 334.181,-74.4257 330.053,-59.9723 350,-48 353.942,-45.6342 358.186,-43.5553 362.562,-41.7299"/>
<polygon fill="midnightblue" stroke="midnightblue" points="364.127,-44.8826 372.287,-38.1256 361.694,-38.3189 364.127,-44.8826"/>
</g>
<!-- Node56 -->
<g id="node10" class="node"><title>Node56</title>
<g id="a_node10"><a xlink:href="class_shapes_1_1_program.html#a80935e72ada1408dd10d9e268c920b2a" target="_top" xlink:title="Print info about error (red color) and write info in logger file. ">
<polygon fill="white" stroke="black" points="353,-171.5 353,-190.5 487,-190.5 487,-171.5 353,-171.5"/>
<text text-anchor="middle" x="420" y="-178.5" font-family="Helvetica,sans-Serif" font-size="10.00">Shapes.Program.PrintError</text>
</a>
</g>
</g>
<!-- Node50&#45;&gt;Node56 -->
<g id="edge9" class="edge"><title>Node50&#45;&gt;Node56</title>
<path fill="none" stroke="midnightblue" d="M291.939,-114.53C299.634,-116.995 307.194,-120.097 314,-124 334.181,-135.574 330.053,-150.028 350,-162 353.596,-164.158 357.442,-166.077 361.412,-167.783"/>
<polygon fill="midnightblue" stroke="midnightblue" points="360.244,-171.084 370.835,-171.388 362.746,-164.546 360.244,-171.084"/>
</g>
<!-- Node54 -->
<g id="node8" class="node"><title>Node54</title>
<g id="a_node8"><a xlink:href="class_shapes_1_1_circle.html#ad486d5e78641c5362021fcf95613b8b5" target="_top" xlink:title="Calculation of circle area. ">
<polygon fill="white" stroke="black" points="546.5,-0.5 546.5,-19.5 662.5,-19.5 662.5,-0.5 546.5,-0.5"/>
<text text-anchor="middle" x="604.5" y="-7.5" font-family="Helvetica,sans-Serif" font-size="10.00">Shapes.Circle.GetArea</text>
</a>
</g>
</g>
<!-- Node53&#45;&gt;Node54 -->
<g id="edge7" class="edge"><title>Node53&#45;&gt;Node54</title>
<path fill="none" stroke="midnightblue" d="M467.525,-24.1563C488.407,-21.9823 513.441,-19.376 536.305,-16.9956"/>
<polygon fill="midnightblue" stroke="midnightblue" points="536.709,-20.4726 546.293,-15.9558 535.984,-13.5102 536.709,-20.4726"/>
</g>
<!-- Node55 -->
<g id="node9" class="node"><title>Node55</title>
<g id="a_node9"><a xlink:href="class_shapes_1_1_circle.html#a80bd1cf7b87ee2a68018d49b97bafabc" target="_top" xlink:title="Calculation of circle perimeter. ">
<polygon fill="white" stroke="black" points="535.5,-38.5 535.5,-57.5 673.5,-57.5 673.5,-38.5 535.5,-38.5"/>
<text text-anchor="middle" x="604.5" y="-45.5" font-family="Helvetica,sans-Serif" font-size="10.00">Shapes.Circle.GetPerimeter</text>
</a>
</g>
</g>
<!-- Node53&#45;&gt;Node55 -->
<g id="edge8" class="edge"><title>Node53&#45;&gt;Node55</title>
<path fill="none" stroke="midnightblue" d="M467.525,-33.8437C485.061,-35.6694 505.525,-37.7999 525.174,-39.8455"/>
<polygon fill="midnightblue" stroke="midnightblue" points="525.045,-43.351 535.354,-40.9054 525.77,-36.3886 525.045,-43.351"/>
</g>
<!-- Node57 -->
<g id="node11" class="node"><title>Node57</title>
<g id="a_node11"><a xlink:href="class_shapes_1_1_logger.html#acb7738fb2c18b2c3b0e312bcb005b29b" target="_top" xlink:title="Bulid error message to write to file. ">
<polygon fill="white" stroke="black" points="551.5,-171.5 551.5,-190.5 657.5,-190.5 657.5,-171.5 551.5,-171.5"/>
<text text-anchor="middle" x="604.5" y="-178.5" font-family="Helvetica,sans-Serif" font-size="10.00">Shapes.Logger.Error</text>
</a>
</g>
</g>
<!-- Node56&#45;&gt;Node57 -->
<g id="edge10" class="edge"><title>Node56&#45;&gt;Node57</title>
<path fill="none" stroke="midnightblue" d="M487.145,-181C504.796,-181 523.807,-181 541.241,-181"/>
<polygon fill="midnightblue" stroke="midnightblue" points="541.303,-184.5 551.303,-181 541.303,-177.5 541.303,-184.5"/>
</g>
<!-- Node58 -->
<g id="node12" class="node"><title>Node58</title>
<g id="a_node12"><a xlink:href="class_shapes_1_1_logger.html#a2dda77f7f9cf3efb3500d30d5e5d82d2" target="_top" xlink:title="Get actual date nd time and build time stamp for logger ">
<polygon fill="white" stroke="black" points="719,-152.5 719,-171.5 869,-171.5 869,-152.5 719,-152.5"/>
<text text-anchor="middle" x="794" y="-159.5" font-family="Helvetica,sans-Serif" font-size="10.00">Shapes.Logger.GetTimeStamp</text>
</a>
</g>
</g>
<!-- Node57&#45;&gt;Node58 -->
<g id="edge11" class="edge"><title>Node57&#45;&gt;Node58</title>
<path fill="none" stroke="midnightblue" d="M657.729,-175.707C673.581,-174.101 691.417,-172.294 708.81,-170.531"/>
<polygon fill="midnightblue" stroke="midnightblue" points="709.385,-173.991 718.981,-169.501 708.679,-167.027 709.385,-173.991"/>
</g>
<!-- Node59 -->
<g id="node13" class="node"><title>Node59</title>
<g id="a_node13"><a xlink:href="class_shapes_1_1_logger.html#aa96be1c3aa242aaa46000eabab3b8901" target="_top" xlink:title="Append logger text to file. ">
<polygon fill="white" stroke="black" points="727,-190.5 727,-209.5 861,-209.5 861,-190.5 727,-190.5"/>
<text text-anchor="middle" x="794" y="-197.5" font-family="Helvetica,sans-Serif" font-size="10.00">Shapes.Logger.WriteToFile</text>
</a>
</g>
</g>
<!-- Node57&#45;&gt;Node59 -->
<g id="edge12" class="edge"><title>Node57&#45;&gt;Node59</title>
<path fill="none" stroke="midnightblue" d="M657.729,-186.293C676.083,-188.152 697.098,-190.282 717.005,-192.299"/>
<polygon fill="midnightblue" stroke="midnightblue" points="716.679,-195.784 726.981,-193.31 717.385,-188.82 716.679,-195.784"/>
</g>
<!-- Node60&#45;&gt;Node51 -->
<g id="edge14" class="edge"><title>Node60&#45;&gt;Node51</title>
<path fill="none" stroke="midnightblue" d="M279.562,-133.411C304.727,-128.284 335.896,-121.933 362.379,-116.537"/>
<polygon fill="midnightblue" stroke="midnightblue" points="363.177,-119.946 372.277,-114.52 361.779,-113.087 363.177,-119.946"/>
</g>
<!-- Node60&#45;&gt;Node56 -->
<g id="edge19" class="edge"><title>Node60&#45;&gt;Node56</title>
<path fill="none" stroke="midnightblue" d="M279.562,-152.589C304.727,-157.716 335.896,-164.067 362.379,-169.463"/>
<polygon fill="midnightblue" stroke="midnightblue" points="361.779,-172.913 372.277,-171.48 363.177,-166.054 361.779,-172.913"/>
</g>
<!-- Node61 -->
<g id="node15" class="node"><title>Node61</title>
<g id="a_node15"><a xlink:href="class_shapes_1_1_triangle.html#a18b9dc53dd62fedb7082f6316d6b8da4" target="_top" xlink:title="Info about triangle. ">
<polygon fill="white" stroke="black" points="368,-133.5 368,-152.5 472,-152.5 472,-133.5 368,-133.5"/>
<text text-anchor="middle" x="420" y="-140.5" font-family="Helvetica,sans-Serif" font-size="10.00">Shapes.Triangle.Info</text>
</a>
</g>
</g>
<!-- Node60&#45;&gt;Node61 -->
<g id="edge15" class="edge"><title>Node60&#45;&gt;Node61</title>
<path fill="none" stroke="midnightblue" d="M308.088,-143C324.571,-143 341.818,-143 357.666,-143"/>
<polygon fill="midnightblue" stroke="midnightblue" points="357.856,-146.5 367.856,-143 357.856,-139.5 357.856,-146.5"/>
</g>
<!-- Node62 -->
<g id="node16" class="node"><title>Node62</title>
<g id="a_node16"><a xlink:href="class_shapes_1_1_triangle.html#ade3230a8638a1f82476375cbe7c8cdd4" target="_top" xlink:title="Calculation of triangle area. ">
<polygon fill="white" stroke="black" points="542,-95.5 542,-114.5 667,-114.5 667,-95.5 542,-95.5"/>
<text text-anchor="middle" x="604.5" y="-102.5" font-family="Helvetica,sans-Serif" font-size="10.00">Shapes.Triangle.GetArea</text>
</a>
</g>
</g>
<!-- Node61&#45;&gt;Node62 -->
<g id="edge16" class="edge"><title>Node61&#45;&gt;Node62</title>
<path fill="none" stroke="midnightblue" d="M467.052,-133.411C491.569,-128.306 521.91,-121.989 547.75,-116.608"/>
<polygon fill="midnightblue" stroke="midnightblue" points="548.702,-119.985 557.779,-114.52 547.275,-113.132 548.702,-119.985"/>
</g>
<!-- Node64 -->
<g id="node18" class="node"><title>Node64</title>
<g id="a_node18"><a xlink:href="class_shapes_1_1_triangle.html#a08c95ff021c8bff6f6299b2bf5228be7" target="_top" xlink:title="Calculation of triangle perimeter. ">
<polygon fill="white" stroke="black" points="531,-133.5 531,-152.5 678,-152.5 678,-133.5 531,-133.5"/>
<text text-anchor="middle" x="604.5" y="-140.5" font-family="Helvetica,sans-Serif" font-size="10.00">Shapes.Triangle.GetPerimeter</text>
</a>
</g>
</g>
<!-- Node61&#45;&gt;Node64 -->
<g id="edge18" class="edge"><title>Node61&#45;&gt;Node64</title>
<path fill="none" stroke="midnightblue" d="M472.322,-143C487.339,-143 504.153,-143 520.602,-143"/>
<polygon fill="midnightblue" stroke="midnightblue" points="520.777,-146.5 530.777,-143 520.777,-139.5 520.777,-146.5"/>
</g>
<!-- Node63 -->
<g id="node17" class="node"><title>Node63</title>
<g id="a_node17"><a xlink:href="class_shapes_1_1_triangle.html#a09cd259936953b9d993837a0bb1bd5b4" target="_top" xlink:title="Calculation S value (Heron formula). ">
<polygon fill="white" stroke="black" points="725.5,-95.5 725.5,-114.5 862.5,-114.5 862.5,-95.5 725.5,-95.5"/>
<text text-anchor="middle" x="794" y="-102.5" font-family="Helvetica,sans-Serif" font-size="10.00">Shapes.Triangle.CalculateS</text>
</a>
</g>
</g>
<!-- Node62&#45;&gt;Node63 -->
<g id="edge17" class="edge"><title>Node62&#45;&gt;Node63</title>
<path fill="none" stroke="midnightblue" d="M667.154,-105C682.477,-105 699.1,-105 715.09,-105"/>
<polygon fill="midnightblue" stroke="midnightblue" points="715.487,-108.5 725.487,-105 715.487,-101.5 715.487,-108.5"/>
</g>
<!-- Node65&#45;&gt;Node51 -->
<g id="edge21" class="edge"><title>Node65&#45;&gt;Node51</title>
<path fill="none" stroke="midnightblue" d="M291.939,-171.47C299.634,-169.005 307.194,-165.903 314,-162 334.181,-150.426 330.053,-135.972 350,-124 353.596,-121.842 357.442,-119.923 361.412,-118.217"/>
<polygon fill="midnightblue" stroke="midnightblue" points="362.746,-121.454 370.835,-114.612 360.244,-114.916 362.746,-121.454"/>
</g>
<!-- Node65&#45;&gt;Node56 -->
<g id="edge25" class="edge"><title>Node65&#45;&gt;Node56</title>
<path fill="none" stroke="midnightblue" d="M313.217,-181C323.008,-181 332.986,-181 342.71,-181"/>
<polygon fill="midnightblue" stroke="midnightblue" points="342.732,-184.5 352.732,-181 342.732,-177.5 342.732,-184.5"/>
</g>
<!-- Node66 -->
<g id="node20" class="node"><title>Node66</title>
<g id="a_node20"><a xlink:href="class_shapes_1_1_rectangle.html#aad9c40eb69f41f219e7f4edc67d54792" target="_top" xlink:title="Info about rectangle. ">
<polygon fill="white" stroke="black" points="363,-209.5 363,-228.5 477,-228.5 477,-209.5 363,-209.5"/>
<text text-anchor="middle" x="420" y="-216.5" font-family="Helvetica,sans-Serif" font-size="10.00">Shapes.Rectangle.Info</text>
</a>
</g>
</g>
<!-- Node65&#45;&gt;Node66 -->
<g id="edge22" class="edge"><title>Node65&#45;&gt;Node66</title>
<path fill="none" stroke="midnightblue" d="M279.562,-190.589C304.727,-195.716 335.896,-202.067 362.379,-207.463"/>
<polygon fill="midnightblue" stroke="midnightblue" points="361.779,-210.913 372.277,-209.48 363.177,-204.054 361.779,-210.913"/>
</g>
<!-- Node67 -->
<g id="node21" class="node"><title>Node67</title>
<g id="a_node21"><a xlink:href="class_shapes_1_1_rectangle.html#ad12c57a5737508e680bae0a124be808b" target="_top" xlink:title="Calculation of rectangle area. ">
<polygon fill="white" stroke="black" points="537,-209.5 537,-228.5 672,-228.5 672,-209.5 537,-209.5"/>
<text text-anchor="middle" x="604.5" y="-216.5" font-family="Helvetica,sans-Serif" font-size="10.00">Shapes.Rectangle.GetArea</text>
</a>
</g>
</g>
<!-- Node66&#45;&gt;Node67 -->
<g id="edge23" class="edge"><title>Node66&#45;&gt;Node67</title>
<path fill="none" stroke="midnightblue" d="M477.245,-219C492.857,-219 510.08,-219 526.652,-219"/>
<polygon fill="midnightblue" stroke="midnightblue" points="526.867,-222.5 536.867,-219 526.867,-215.5 526.867,-222.5"/>
</g>
<!-- Node68 -->
<g id="node22" class="node"><title>Node68</title>
<g id="a_node22"><a xlink:href="class_shapes_1_1_rectangle.html#a61456928420e1d61a4bbb6c89a5fb9d7" target="_top" xlink:title="Calculation of rectangle perimeter. ">
<polygon fill="white" stroke="black" points="526,-247.5 526,-266.5 683,-266.5 683,-247.5 526,-247.5"/>
<text text-anchor="middle" x="604.5" y="-254.5" font-family="Helvetica,sans-Serif" font-size="10.00">Shapes.Rectangle.GetPerimeter</text>
</a>
</g>
</g>
<!-- Node66&#45;&gt;Node68 -->
<g id="edge24" class="edge"><title>Node66&#45;&gt;Node68</title>
<path fill="none" stroke="midnightblue" d="M467.052,-228.589C491.569,-233.694 521.91,-240.011 547.75,-245.392"/>
<polygon fill="midnightblue" stroke="midnightblue" points="547.275,-248.868 557.779,-247.48 548.702,-242.015 547.275,-248.868"/>
</g>
</g>
</svg>
