<?xml version="1.0" encoding="UTF-8" standalone="no"?>
<!DOCTYPE svg PUBLIC "-//W3C//DTD SVG 1.1//EN"
 "http://www.w3.org/Graphics/SVG/1.1/DTD/svg11.dtd">
<!-- Generated by graphviz version 2.38.0 (20140413.2041)
 -->
<!-- Title: Shapes.Rectangle.Info Pages: 1 -->
<svg width="315pt" height="66pt"
 viewBox="0.00 0.00 315.00 66.00" xmlns="http://www.w3.org/2000/svg" xmlns:xlink="http://www.w3.org/1999/xlink">
<g id="graph0" class="graph" transform="scale(1 1) rotate(0) translate(4 62)">
<title>Shapes.Rectangle.Info</title>
<polygon fill="white" stroke="none" points="-4,4 -4,-62 311,-62 311,4 -4,4"/>
<!-- Node12 -->
<g id="node1" class="node"><title>Node12</title>
<polygon fill="#bfbfbf" stroke="black" points="0,-19.5 0,-38.5 114,-38.5 114,-19.5 0,-19.5"/>
<text text-anchor="middle" x="57" y="-26.5" font-family="Helvetica,sans-Serif" font-size="10.00">Shapes.Rectangle.Info</text>
</g>
<!-- Node13 -->
<g id="node2" class="node"><title>Node13</title>
<g id="a_node2"><a xlink:href="class_shapes_1_1_rectangle.html#ad12c57a5737508e680bae0a124be808b" target="_top" xlink:title="Calculation of rectangle area. ">
<polygon fill="white" stroke="black" points="161,-38.5 161,-57.5 296,-57.5 296,-38.5 161,-38.5"/>
<text text-anchor="middle" x="228.5" y="-45.5" font-family="Helvetica,sans-Serif" font-size="10.00">Shapes.Rectangle.GetArea</text>
</a>
</g>
</g>
<!-- Node12&#45;&gt;Node13 -->
<g id="edge1" class="edge"><title>Node12&#45;&gt;Node13</title>
<path fill="none" stroke="midnightblue" d="M114.441,-35.3267C126.028,-36.6255 138.412,-38.0137 150.579,-39.3776"/>
<polygon fill="midnightblue" stroke="midnightblue" points="150.398,-42.8792 160.726,-40.515 151.178,-35.9227 150.398,-42.8792"/>
</g>
<!-- Node14 -->
<g id="node3" class="node"><title>Node14</title>
<g id="a_node3"><a xlink:href="class_shapes_1_1_rectangle.html#a61456928420e1d61a4bbb6c89a5fb9d7" target="_top" xlink:title="Calculation of rectangle perimeter. ">
<polygon fill="white" stroke="black" points="150,-0.5 150,-19.5 307,-19.5 307,-0.5 150,-0.5"/>
<text text-anchor="middle" x="228.5" y="-7.5" font-family="Helvetica,sans-Serif" font-size="10.00">Shapes.Rectangle.GetPerimeter</text>
</a>
</g>
</g>
<!-- Node12&#45;&gt;Node14 -->
<g id="edge2" class="edge"><title>Node12&#45;&gt;Node14</title>
<path fill="none" stroke="midnightblue" d="M114.441,-22.6733C122.609,-21.7577 131.173,-20.7977 139.778,-19.8331"/>
<polygon fill="midnightblue" stroke="midnightblue" points="140.329,-23.2934 149.877,-18.7011 139.549,-16.3369 140.329,-23.2934"/>
</g>
</g>
</svg>
