<?xml version="1.0" encoding="UTF-8" standalone="no"?>
<!DOCTYPE svg PUBLIC "-//W3C//DTD SVG 1.1//EN"
 "http://www.w3.org/Graphics/SVG/1.1/DTD/svg11.dtd">
<!-- Generated by graphviz version 2.38.0 (20140413.2041)
 -->
<!-- Title: Shapes.Program.DefineTriangle Pages: 1 -->
<svg width="700pt" height="123pt"
 viewBox="0.00 0.00 700.00 123.00" xmlns="http://www.w3.org/2000/svg" xmlns:xlink="http://www.w3.org/1999/xlink">
<g id="graph0" class="graph" transform="scale(1 1) rotate(0) translate(4 119)">
<title>Shapes.Program.DefineTriangle</title>
<polygon fill="white" stroke="none" points="-4,4 -4,-119 696,-119 696,4 -4,4"/>
<!-- Node29 -->
<g id="node1" class="node"><title>Node29</title>
<polygon fill="#bfbfbf" stroke="black" points="0,-57.5 0,-76.5 153,-76.5 153,-57.5 0,-57.5"/>
<text text-anchor="middle" x="76.5" y="-64.5" font-family="Helvetica,sans-Serif" font-size="10.00">Shapes.Program.DefineTriangle</text>
</g>
<!-- Node30 -->
<g id="node2" class="node"><title>Node30</title>
<g id="a_node2"><a xlink:href="class_shapes_1_1_program.html#ad2616355773ad5960818471fd199eddc" target="_top" xlink:title="Get number from console. ">
<polygon fill="white" stroke="black" points="189.5,-95.5 189.5,-114.5 322.5,-114.5 322.5,-95.5 189.5,-95.5"/>
<text text-anchor="middle" x="256" y="-102.5" font-family="Helvetica,sans-Serif" font-size="10.00">Shapes.Program.GetValue</text>
</a>
</g>
</g>
<!-- Node29&#45;&gt;Node30 -->
<g id="edge1" class="edge"><title>Node29&#45;&gt;Node30</title>
<path fill="none" stroke="midnightblue" d="M122.291,-76.589C146.03,-81.6713 175.384,-87.9554 200.444,-93.3203"/>
<polygon fill="midnightblue" stroke="midnightblue" points="200.02,-96.8089 210.531,-95.4799 201.486,-89.964 200.02,-96.8089"/>
</g>
<!-- Node31 -->
<g id="node3" class="node"><title>Node31</title>
<g id="a_node3"><a xlink:href="class_shapes_1_1_triangle.html#a18b9dc53dd62fedb7082f6316d6b8da4" target="_top" xlink:title="Info about triangle. ">
<polygon fill="white" stroke="black" points="204,-57.5 204,-76.5 308,-76.5 308,-57.5 204,-57.5"/>
<text text-anchor="middle" x="256" y="-64.5" font-family="Helvetica,sans-Serif" font-size="10.00">Shapes.Triangle.Info</text>
</a>
</g>
</g>
<!-- Node29&#45;&gt;Node31 -->
<g id="edge2" class="edge"><title>Node29&#45;&gt;Node31</title>
<path fill="none" stroke="midnightblue" d="M153.033,-67C166.584,-67 180.555,-67 193.645,-67"/>
<polygon fill="midnightblue" stroke="midnightblue" points="193.928,-70.5001 203.928,-67 193.928,-63.5001 193.928,-70.5001"/>
</g>
<!-- Node35 -->
<g id="node7" class="node"><title>Node35</title>
<g id="a_node7"><a xlink:href="class_shapes_1_1_program.html#a80935e72ada1408dd10d9e268c920b2a" target="_top" xlink:title="Print info about error (red color) and write info in logger file. ">
<polygon fill="white" stroke="black" points="189,-19.5 189,-38.5 323,-38.5 323,-19.5 189,-19.5"/>
<text text-anchor="middle" x="256" y="-26.5" font-family="Helvetica,sans-Serif" font-size="10.00">Shapes.Program.PrintError</text>
</a>
</g>
</g>
<!-- Node29&#45;&gt;Node35 -->
<g id="edge6" class="edge"><title>Node29&#45;&gt;Node35</title>
<path fill="none" stroke="midnightblue" d="M122.291,-57.411C146.03,-52.3287 175.384,-46.0446 200.444,-40.6797"/>
<polygon fill="midnightblue" stroke="midnightblue" points="201.486,-44.036 210.531,-38.5201 200.02,-37.1911 201.486,-44.036"/>
</g>
<!-- Node32 -->
<g id="node4" class="node"><title>Node32</title>
<g id="a_node4"><a xlink:href="class_shapes_1_1_triangle.html#ade3230a8638a1f82476375cbe7c8cdd4" target="_top" xlink:title="Calculation of triangle area. ">
<polygon fill="white" stroke="black" points="370,-95.5 370,-114.5 495,-114.5 495,-95.5 370,-95.5"/>
<text text-anchor="middle" x="432.5" y="-102.5" font-family="Helvetica,sans-Serif" font-size="10.00">Shapes.Triangle.GetArea</text>
</a>
</g>
</g>
<!-- Node31&#45;&gt;Node32 -->
<g id="edge3" class="edge"><title>Node31&#45;&gt;Node32</title>
<path fill="none" stroke="midnightblue" d="M301.034,-76.589C324.372,-81.6713 353.23,-87.9554 377.866,-93.3203"/>
<polygon fill="midnightblue" stroke="midnightblue" points="377.267,-96.7719 387.783,-95.4799 378.757,-89.9322 377.267,-96.7719"/>
</g>
<!-- Node34 -->
<g id="node6" class="node"><title>Node34</title>
<g id="a_node6"><a xlink:href="class_shapes_1_1_triangle.html#a08c95ff021c8bff6f6299b2bf5228be7" target="_top" xlink:title="Calculation of triangle perimeter. ">
<polygon fill="white" stroke="black" points="359,-57.5 359,-76.5 506,-76.5 506,-57.5 359,-57.5"/>
<text text-anchor="middle" x="432.5" y="-64.5" font-family="Helvetica,sans-Serif" font-size="10.00">Shapes.Triangle.GetPerimeter</text>
</a>
</g>
</g>
<!-- Node31&#45;&gt;Node34 -->
<g id="edge5" class="edge"><title>Node31&#45;&gt;Node34</title>
<path fill="none" stroke="midnightblue" d="M308.412,-67C320.99,-67 334.77,-67 348.414,-67"/>
<polygon fill="midnightblue" stroke="midnightblue" points="348.799,-70.5001 358.799,-67 348.799,-63.5001 348.799,-70.5001"/>
</g>
<!-- Node33 -->
<g id="node5" class="node"><title>Node33</title>
<g id="a_node5"><a xlink:href="class_shapes_1_1_triangle.html#a09cd259936953b9d993837a0bb1bd5b4" target="_top" xlink:title="Calculation S value (Heron formula). ">
<polygon fill="white" stroke="black" points="548.5,-95.5 548.5,-114.5 685.5,-114.5 685.5,-95.5 548.5,-95.5"/>
<text text-anchor="middle" x="617" y="-102.5" font-family="Helvetica,sans-Serif" font-size="10.00">Shapes.Triangle.CalculateS</text>
</a>
</g>
</g>
<!-- Node32&#45;&gt;Node33 -->
<g id="edge4" class="edge"><title>Node32&#45;&gt;Node33</title>
<path fill="none" stroke="midnightblue" d="M495.032,-105C508.854,-105 523.698,-105 538.09,-105"/>
<polygon fill="midnightblue" stroke="midnightblue" points="538.468,-108.5 548.468,-105 538.468,-101.5 538.468,-108.5"/>
</g>
<!-- Node36 -->
<g id="node8" class="node"><title>Node36</title>
<g id="a_node8"><a xlink:href="class_shapes_1_1_logger.html#acb7738fb2c18b2c3b0e312bcb005b29b" target="_top" xlink:title="Bulid error message to write to file. ">
<polygon fill="white" stroke="black" points="379.5,-19.5 379.5,-38.5 485.5,-38.5 485.5,-19.5 379.5,-19.5"/>
<text text-anchor="middle" x="432.5" y="-26.5" font-family="Helvetica,sans-Serif" font-size="10.00">Shapes.Logger.Error</text>
</a>
</g>
</g>
<!-- Node35&#45;&gt;Node36 -->
<g id="edge7" class="edge"><title>Node35&#45;&gt;Node36</title>
<path fill="none" stroke="midnightblue" d="M323.469,-29C338.494,-29 354.392,-29 369.237,-29"/>
<polygon fill="midnightblue" stroke="midnightblue" points="369.322,-32.5001 379.322,-29 369.322,-25.5001 369.322,-32.5001"/>
</g>
<!-- Node37 -->
<g id="node9" class="node"><title>Node37</title>
<g id="a_node9"><a xlink:href="class_shapes_1_1_logger.html#a2dda77f7f9cf3efb3500d30d5e5d82d2" target="_top" xlink:title="Get actual date nd time and build time stamp for logger ">
<polygon fill="white" stroke="black" points="542,-38.5 542,-57.5 692,-57.5 692,-38.5 542,-38.5"/>
<text text-anchor="middle" x="617" y="-45.5" font-family="Helvetica,sans-Serif" font-size="10.00">Shapes.Logger.GetTimeStamp</text>
</a>
</g>
</g>
<!-- Node36&#45;&gt;Node37 -->
<g id="edge8" class="edge"><title>Node36&#45;&gt;Node37</title>
<path fill="none" stroke="midnightblue" d="M485.797,-34.4446C500.14,-35.9379 516.063,-37.5957 531.712,-39.2248"/>
<polygon fill="midnightblue" stroke="midnightblue" points="531.628,-42.7349 541.937,-40.2893 532.353,-35.7725 531.628,-42.7349"/>
</g>
<!-- Node38 -->
<g id="node10" class="node"><title>Node38</title>
<g id="a_node10"><a xlink:href="class_shapes_1_1_logger.html#aa96be1c3aa242aaa46000eabab3b8901" target="_top" xlink:title="Append logger text to file. ">
<polygon fill="white" stroke="black" points="550,-0.5 550,-19.5 684,-19.5 684,-0.5 550,-0.5"/>
<text text-anchor="middle" x="617" y="-7.5" font-family="Helvetica,sans-Serif" font-size="10.00">Shapes.Logger.WriteToFile</text>
</a>
</g>
</g>
<!-- Node36&#45;&gt;Node38 -->
<g id="edge9" class="edge"><title>Node36&#45;&gt;Node38</title>
<path fill="none" stroke="midnightblue" d="M485.797,-23.5554C502.594,-21.8067 521.558,-19.8323 539.711,-17.9424"/>
<polygon fill="midnightblue" stroke="midnightblue" points="540.109,-21.42 549.693,-16.9032 539.384,-14.4576 540.109,-21.42"/>
</g>
</g>
</svg>
