<?xml version="1.0" encoding="UTF-8" standalone="no"?>
<!DOCTYPE svg PUBLIC "-//W3C//DTD SVG 1.1//EN"
 "http://www.w3.org/Graphics/SVG/1.1/DTD/svg11.dtd">
<!-- Generated by graphviz version 2.38.0 (20140413.2041)
 -->
<!-- Title: Shapes.Program.PrintError Pages: 1 -->
<svg width="490pt" height="104pt"
 viewBox="0.00 0.00 490.00 104.00" xmlns="http://www.w3.org/2000/svg" xmlns:xlink="http://www.w3.org/1999/xlink">
<g id="graph0" class="graph" transform="scale(1 1) rotate(0) translate(4 100)">
<title>Shapes.Program.PrintError</title>
<polygon fill="white" stroke="none" points="-4,4 -4,-100 486,-100 486,4 -4,4"/>
<!-- Node75 -->
<g id="node1" class="node"><title>Node75</title>
<polygon fill="#bfbfbf" stroke="black" points="0,-38.5 0,-57.5 134,-57.5 134,-38.5 0,-38.5"/>
<text text-anchor="middle" x="67" y="-45.5" font-family="Helvetica,sans-Serif" font-size="10.00">Shapes.Program.PrintError</text>
</g>
<!-- Node76 -->
<g id="node2" class="node"><title>Node76</title>
<g id="a_node2"><a xlink:href="class_shapes_1_1_program.html#a1efd94a5fcc1c59889d86eb3b6338126" target="_top" xlink:title="Calculations for circle. ">
<polygon fill="white" stroke="black" points="179.5,-76.5 179.5,-95.5 323.5,-95.5 323.5,-76.5 179.5,-76.5"/>
<text text-anchor="middle" x="251.5" y="-83.5" font-family="Helvetica,sans-Serif" font-size="10.00">Shapes.Program.DefineCircle</text>
</a>
</g>
</g>
<!-- Node75&#45;&gt;Node76 -->
<g id="edge1" class="edge"><title>Node75&#45;&gt;Node76</title>
<path fill="none" stroke="midnightblue" d="M124.099,-59.681C149.98,-65.0699 180.315,-71.3861 204.779,-76.4799"/>
<polygon fill="midnightblue" stroke="midnightblue" points="124.556,-56.201 114.052,-57.589 123.129,-63.0541 124.556,-56.201"/>
</g>
<!-- Node78 -->
<g id="node4" class="node"><title>Node78</title>
<g id="a_node4"><a xlink:href="class_shapes_1_1_program.html#a8a1637f40366dbd731d40d851a9d56d5" target="_top" xlink:title="Calculations for triangle. ">
<polygon fill="white" stroke="black" points="170,-38.5 170,-57.5 333,-57.5 333,-38.5 170,-38.5"/>
<text text-anchor="middle" x="251.5" y="-45.5" font-family="Helvetica,sans-Serif" font-size="10.00">Shapes.Program.DefineRectangle</text>
</a>
</g>
</g>
<!-- Node75&#45;&gt;Node78 -->
<g id="edge3" class="edge"><title>Node75&#45;&gt;Node78</title>
<path fill="none" stroke="midnightblue" d="M144.357,-48C152.817,-48 161.452,-48 169.962,-48"/>
<polygon fill="midnightblue" stroke="midnightblue" points="144.145,-44.5001 134.145,-48 144.145,-51.5001 144.145,-44.5001"/>
</g>
<!-- Node79 -->
<g id="node5" class="node"><title>Node79</title>
<g id="a_node5"><a xlink:href="class_shapes_1_1_program.html#ad8b6d8412545a58506aaaad285d34ff6" target="_top" xlink:title="Calculations for triangle. ">
<polygon fill="white" stroke="black" points="175,-0.5 175,-19.5 328,-19.5 328,-0.5 175,-0.5"/>
<text text-anchor="middle" x="251.5" y="-7.5" font-family="Helvetica,sans-Serif" font-size="10.00">Shapes.Program.DefineTriangle</text>
</a>
</g>
</g>
<!-- Node75&#45;&gt;Node79 -->
<g id="edge5" class="edge"><title>Node75&#45;&gt;Node79</title>
<path fill="none" stroke="midnightblue" d="M124.099,-36.319C149.98,-30.9301 180.315,-24.6139 204.779,-19.5201"/>
<polygon fill="midnightblue" stroke="midnightblue" points="123.129,-32.9459 114.052,-38.411 124.556,-39.799 123.129,-32.9459"/>
</g>
<!-- Node77 -->
<g id="node3" class="node"><title>Node77</title>
<g id="a_node3"><a xlink:href="class_shapes_1_1_program.html#a594c0a6ca9384efead89054fe342664c" target="_top" xlink:title="Main function. ">
<polygon fill="white" stroke="black" points="369,-38.5 369,-57.5 482,-57.5 482,-38.5 369,-38.5"/>
<text text-anchor="middle" x="425.5" y="-45.5" font-family="Helvetica,sans-Serif" font-size="10.00">Shapes.Program.Main</text>
</a>
</g>
</g>
<!-- Node76&#45;&gt;Node77 -->
<g id="edge2" class="edge"><title>Node76&#45;&gt;Node77</title>
<path fill="none" stroke="midnightblue" d="M305.696,-74.2474C330.017,-68.8742 358.455,-62.5914 381.409,-57.5201"/>
<polygon fill="midnightblue" stroke="midnightblue" points="304.912,-70.836 295.903,-76.411 306.422,-77.6712 304.912,-70.836"/>
</g>
<!-- Node78&#45;&gt;Node77 -->
<g id="edge4" class="edge"><title>Node78&#45;&gt;Node77</title>
<path fill="none" stroke="midnightblue" d="M343.387,-48C352.046,-48 360.639,-48 368.813,-48"/>
<polygon fill="midnightblue" stroke="midnightblue" points="343.212,-44.5001 333.212,-48 343.212,-51.5001 343.212,-44.5001"/>
</g>
<!-- Node79&#45;&gt;Node77 -->
<g id="edge6" class="edge"><title>Node79&#45;&gt;Node77</title>
<path fill="none" stroke="midnightblue" d="M305.696,-21.7526C330.017,-27.1258 358.455,-33.4086 381.409,-38.4799"/>
<polygon fill="midnightblue" stroke="midnightblue" points="306.422,-18.3288 295.903,-19.589 304.912,-25.164 306.422,-18.3288"/>
</g>
</g>
</svg>
