<?xml version="1.0" encoding="UTF-8" standalone="no"?>
<!DOCTYPE svg PUBLIC "-//W3C//DTD SVG 1.1//EN"
 "http://www.w3.org/Graphics/SVG/1.1/DTD/svg11.dtd">
<!-- Generated by graphviz version 2.38.0 (20140413.2041)
 -->
<!-- Title: Shapes.Logger.GetTimeStamp Pages: 1 -->
<svg width="818pt" height="104pt"
 viewBox="0.00 0.00 818.00 104.00" xmlns="http://www.w3.org/2000/svg" xmlns:xlink="http://www.w3.org/1999/xlink">
<g id="graph0" class="graph" transform="scale(1 1) rotate(0) translate(4 100)">
<title>Shapes.Logger.GetTimeStamp</title>
<polygon fill="white" stroke="none" points="-4,4 -4,-100 814,-100 814,4 -4,4"/>
<!-- Node10 -->
<g id="node1" class="node"><title>Node10</title>
<polygon fill="#bfbfbf" stroke="black" points="0,-38.5 0,-57.5 150,-57.5 150,-38.5 0,-38.5"/>
<text text-anchor="middle" x="75" y="-45.5" font-family="Helvetica,sans-Serif" font-size="10.00">Shapes.Logger.GetTimeStamp</text>
</g>
<!-- Node11 -->
<g id="node2" class="node"><title>Node11</title>
<g id="a_node2"><a xlink:href="class_shapes_1_1_logger.html#acb7738fb2c18b2c3b0e312bcb005b29b" target="_top" xlink:title="Bulid error message to write to file. ">
<polygon fill="white" stroke="black" points="186,-38.5 186,-57.5 292,-57.5 292,-38.5 186,-38.5"/>
<text text-anchor="middle" x="239" y="-45.5" font-family="Helvetica,sans-Serif" font-size="10.00">Shapes.Logger.Error</text>
</a>
</g>
</g>
<!-- Node10&#45;&gt;Node11 -->
<g id="edge1" class="edge"><title>Node10&#45;&gt;Node11</title>
<path fill="none" stroke="midnightblue" d="M160.491,-48C169.119,-48 177.693,-48 185.823,-48"/>
<polygon fill="midnightblue" stroke="midnightblue" points="160.362,-44.5001 150.362,-48 160.362,-51.5001 160.362,-44.5001"/>
</g>
<!-- Node12 -->
<g id="node3" class="node"><title>Node12</title>
<g id="a_node3"><a xlink:href="class_shapes_1_1_program.html#a80935e72ada1408dd10d9e268c920b2a" target="_top" xlink:title="Print info about error (red color) and write info in logger file. ">
<polygon fill="white" stroke="black" points="328,-38.5 328,-57.5 462,-57.5 462,-38.5 328,-38.5"/>
<text text-anchor="middle" x="395" y="-45.5" font-family="Helvetica,sans-Serif" font-size="10.00">Shapes.Program.PrintError</text>
</a>
</g>
</g>
<!-- Node11&#45;&gt;Node12 -->
<g id="edge2" class="edge"><title>Node11&#45;&gt;Node12</title>
<path fill="none" stroke="midnightblue" d="M302.305,-48C310.765,-48 319.47,-48 327.992,-48"/>
<polygon fill="midnightblue" stroke="midnightblue" points="302.137,-44.5001 292.137,-48 302.137,-51.5001 302.137,-44.5001"/>
</g>
<!-- Node13 -->
<g id="node4" class="node"><title>Node13</title>
<g id="a_node4"><a xlink:href="class_shapes_1_1_program.html#a1efd94a5fcc1c59889d86eb3b6338126" target="_top" xlink:title="Calculations for circle. ">
<polygon fill="white" stroke="black" points="507.5,-76.5 507.5,-95.5 651.5,-95.5 651.5,-76.5 507.5,-76.5"/>
<text text-anchor="middle" x="579.5" y="-83.5" font-family="Helvetica,sans-Serif" font-size="10.00">Shapes.Program.DefineCircle</text>
</a>
</g>
</g>
<!-- Node12&#45;&gt;Node13 -->
<g id="edge3" class="edge"><title>Node12&#45;&gt;Node13</title>
<path fill="none" stroke="midnightblue" d="M452.099,-59.681C477.98,-65.0699 508.315,-71.3861 532.779,-76.4799"/>
<polygon fill="midnightblue" stroke="midnightblue" points="452.556,-56.201 442.052,-57.589 451.129,-63.0541 452.556,-56.201"/>
</g>
<!-- Node15 -->
<g id="node6" class="node"><title>Node15</title>
<g id="a_node6"><a xlink:href="class_shapes_1_1_program.html#a8a1637f40366dbd731d40d851a9d56d5" target="_top" xlink:title="Calculations for triangle. ">
<polygon fill="white" stroke="black" points="498,-38.5 498,-57.5 661,-57.5 661,-38.5 498,-38.5"/>
<text text-anchor="middle" x="579.5" y="-45.5" font-family="Helvetica,sans-Serif" font-size="10.00">Shapes.Program.DefineRectangle</text>
</a>
</g>
</g>
<!-- Node12&#45;&gt;Node15 -->
<g id="edge5" class="edge"><title>Node12&#45;&gt;Node15</title>
<path fill="none" stroke="midnightblue" d="M472.357,-48C480.817,-48 489.452,-48 497.962,-48"/>
<polygon fill="midnightblue" stroke="midnightblue" points="472.145,-44.5001 462.145,-48 472.145,-51.5001 472.145,-44.5001"/>
</g>
<!-- Node16 -->
<g id="node7" class="node"><title>Node16</title>
<g id="a_node7"><a xlink:href="class_shapes_1_1_program.html#ad8b6d8412545a58506aaaad285d34ff6" target="_top" xlink:title="Calculations for triangle. ">
<polygon fill="white" stroke="black" points="503,-0.5 503,-19.5 656,-19.5 656,-0.5 503,-0.5"/>
<text text-anchor="middle" x="579.5" y="-7.5" font-family="Helvetica,sans-Serif" font-size="10.00">Shapes.Program.DefineTriangle</text>
</a>
</g>
</g>
<!-- Node12&#45;&gt;Node16 -->
<g id="edge7" class="edge"><title>Node12&#45;&gt;Node16</title>
<path fill="none" stroke="midnightblue" d="M452.099,-36.319C477.98,-30.9301 508.315,-24.6139 532.779,-19.5201"/>
<polygon fill="midnightblue" stroke="midnightblue" points="451.129,-32.9459 442.052,-38.411 452.556,-39.799 451.129,-32.9459"/>
</g>
<!-- Node14 -->
<g id="node5" class="node"><title>Node14</title>
<g id="a_node5"><a xlink:href="class_shapes_1_1_program.html#a594c0a6ca9384efead89054fe342664c" target="_top" xlink:title="Main function. ">
<polygon fill="white" stroke="black" points="697,-38.5 697,-57.5 810,-57.5 810,-38.5 697,-38.5"/>
<text text-anchor="middle" x="753.5" y="-45.5" font-family="Helvetica,sans-Serif" font-size="10.00">Shapes.Program.Main</text>
</a>
</g>
</g>
<!-- Node13&#45;&gt;Node14 -->
<g id="edge4" class="edge"><title>Node13&#45;&gt;Node14</title>
<path fill="none" stroke="midnightblue" d="M633.696,-74.2474C658.017,-68.8742 686.455,-62.5914 709.409,-57.5201"/>
<polygon fill="midnightblue" stroke="midnightblue" points="632.912,-70.836 623.903,-76.411 634.422,-77.6712 632.912,-70.836"/>
</g>
<!-- Node15&#45;&gt;Node14 -->
<g id="edge6" class="edge"><title>Node15&#45;&gt;Node14</title>
<path fill="none" stroke="midnightblue" d="M671.387,-48C680.046,-48 688.639,-48 696.813,-48"/>
<polygon fill="midnightblue" stroke="midnightblue" points="671.212,-44.5001 661.212,-48 671.212,-51.5001 671.212,-44.5001"/>
</g>
<!-- Node16&#45;&gt;Node14 -->
<g id="edge8" class="edge"><title>Node16&#45;&gt;Node14</title>
<path fill="none" stroke="midnightblue" d="M633.696,-21.7526C658.017,-27.1258 686.455,-33.4086 709.409,-38.4799"/>
<polygon fill="midnightblue" stroke="midnightblue" points="634.422,-18.3288 623.903,-19.589 632.912,-25.164 634.422,-18.3288"/>
</g>
</g>
</svg>
