<?xml version="1.0" encoding="UTF-8" standalone="no"?>
<!DOCTYPE svg PUBLIC "-//W3C//DTD SVG 1.1//EN"
 "http://www.w3.org/Graphics/SVG/1.1/DTD/svg11.dtd">
<!-- Generated by graphviz version 2.38.0 (20140413.2041)
 -->
<!-- Title: Shapes.Logger.WriteToFile Pages: 1 -->
<svg width="802pt" height="104pt"
 viewBox="0.00 0.00 802.00 104.00" xmlns="http://www.w3.org/2000/svg" xmlns:xlink="http://www.w3.org/1999/xlink">
<g id="graph0" class="graph" transform="scale(1 1) rotate(0) translate(4 100)">
<title>Shapes.Logger.WriteToFile</title>
<polygon fill="white" stroke="none" points="-4,4 -4,-100 798,-100 798,4 -4,4"/>
<!-- Node18 -->
<g id="node1" class="node"><title>Node18</title>
<polygon fill="#bfbfbf" stroke="black" points="0,-38.5 0,-57.5 134,-57.5 134,-38.5 0,-38.5"/>
<text text-anchor="middle" x="67" y="-45.5" font-family="Helvetica,sans-Serif" font-size="10.00">Shapes.Logger.WriteToFile</text>
</g>
<!-- Node19 -->
<g id="node2" class="node"><title>Node19</title>
<g id="a_node2"><a xlink:href="class_shapes_1_1_logger.html#acb7738fb2c18b2c3b0e312bcb005b29b" target="_top" xlink:title="Bulid error message to write to file. ">
<polygon fill="white" stroke="black" points="170,-38.5 170,-57.5 276,-57.5 276,-38.5 170,-38.5"/>
<text text-anchor="middle" x="223" y="-45.5" font-family="Helvetica,sans-Serif" font-size="10.00">Shapes.Logger.Error</text>
</a>
</g>
</g>
<!-- Node18&#45;&gt;Node19 -->
<g id="edge1" class="edge"><title>Node18&#45;&gt;Node19</title>
<path fill="none" stroke="midnightblue" d="M144.303,-48C152.934,-48 161.576,-48 169.795,-48"/>
<polygon fill="midnightblue" stroke="midnightblue" points="144.204,-44.5001 134.204,-48 144.204,-51.5001 144.204,-44.5001"/>
</g>
<!-- Node20 -->
<g id="node3" class="node"><title>Node20</title>
<g id="a_node3"><a xlink:href="class_shapes_1_1_program.html#a80935e72ada1408dd10d9e268c920b2a" target="_top" xlink:title="Print info about error (red color) and write info in logger file. ">
<polygon fill="white" stroke="black" points="312,-38.5 312,-57.5 446,-57.5 446,-38.5 312,-38.5"/>
<text text-anchor="middle" x="379" y="-45.5" font-family="Helvetica,sans-Serif" font-size="10.00">Shapes.Program.PrintError</text>
</a>
</g>
</g>
<!-- Node19&#45;&gt;Node20 -->
<g id="edge2" class="edge"><title>Node19&#45;&gt;Node20</title>
<path fill="none" stroke="midnightblue" d="M286.305,-48C294.765,-48 303.47,-48 311.992,-48"/>
<polygon fill="midnightblue" stroke="midnightblue" points="286.137,-44.5001 276.137,-48 286.137,-51.5001 286.137,-44.5001"/>
</g>
<!-- Node21 -->
<g id="node4" class="node"><title>Node21</title>
<g id="a_node4"><a xlink:href="class_shapes_1_1_program.html#a1efd94a5fcc1c59889d86eb3b6338126" target="_top" xlink:title="Calculations for circle. ">
<polygon fill="white" stroke="black" points="491.5,-76.5 491.5,-95.5 635.5,-95.5 635.5,-76.5 491.5,-76.5"/>
<text text-anchor="middle" x="563.5" y="-83.5" font-family="Helvetica,sans-Serif" font-size="10.00">Shapes.Program.DefineCircle</text>
</a>
</g>
</g>
<!-- Node20&#45;&gt;Node21 -->
<g id="edge3" class="edge"><title>Node20&#45;&gt;Node21</title>
<path fill="none" stroke="midnightblue" d="M436.099,-59.681C461.98,-65.0699 492.315,-71.3861 516.779,-76.4799"/>
<polygon fill="midnightblue" stroke="midnightblue" points="436.556,-56.201 426.052,-57.589 435.129,-63.0541 436.556,-56.201"/>
</g>
<!-- Node23 -->
<g id="node6" class="node"><title>Node23</title>
<g id="a_node6"><a xlink:href="class_shapes_1_1_program.html#a8a1637f40366dbd731d40d851a9d56d5" target="_top" xlink:title="Calculations for triangle. ">
<polygon fill="white" stroke="black" points="482,-38.5 482,-57.5 645,-57.5 645,-38.5 482,-38.5"/>
<text text-anchor="middle" x="563.5" y="-45.5" font-family="Helvetica,sans-Serif" font-size="10.00">Shapes.Program.DefineRectangle</text>
</a>
</g>
</g>
<!-- Node20&#45;&gt;Node23 -->
<g id="edge5" class="edge"><title>Node20&#45;&gt;Node23</title>
<path fill="none" stroke="midnightblue" d="M456.357,-48C464.817,-48 473.452,-48 481.962,-48"/>
<polygon fill="midnightblue" stroke="midnightblue" points="456.145,-44.5001 446.145,-48 456.145,-51.5001 456.145,-44.5001"/>
</g>
<!-- Node24 -->
<g id="node7" class="node"><title>Node24</title>
<g id="a_node7"><a xlink:href="class_shapes_1_1_program.html#ad8b6d8412545a58506aaaad285d34ff6" target="_top" xlink:title="Calculations for triangle. ">
<polygon fill="white" stroke="black" points="487,-0.5 487,-19.5 640,-19.5 640,-0.5 487,-0.5"/>
<text text-anchor="middle" x="563.5" y="-7.5" font-family="Helvetica,sans-Serif" font-size="10.00">Shapes.Program.DefineTriangle</text>
</a>
</g>
</g>
<!-- Node20&#45;&gt;Node24 -->
<g id="edge7" class="edge"><title>Node20&#45;&gt;Node24</title>
<path fill="none" stroke="midnightblue" d="M436.099,-36.319C461.98,-30.9301 492.315,-24.6139 516.779,-19.5201"/>
<polygon fill="midnightblue" stroke="midnightblue" points="435.129,-32.9459 426.052,-38.411 436.556,-39.799 435.129,-32.9459"/>
</g>
<!-- Node22 -->
<g id="node5" class="node"><title>Node22</title>
<g id="a_node5"><a xlink:href="class_shapes_1_1_program.html#a594c0a6ca9384efead89054fe342664c" target="_top" xlink:title="Main function. ">
<polygon fill="white" stroke="black" points="681,-38.5 681,-57.5 794,-57.5 794,-38.5 681,-38.5"/>
<text text-anchor="middle" x="737.5" y="-45.5" font-family="Helvetica,sans-Serif" font-size="10.00">Shapes.Program.Main</text>
</a>
</g>
</g>
<!-- Node21&#45;&gt;Node22 -->
<g id="edge4" class="edge"><title>Node21&#45;&gt;Node22</title>
<path fill="none" stroke="midnightblue" d="M617.696,-74.2474C642.017,-68.8742 670.455,-62.5914 693.409,-57.5201"/>
<polygon fill="midnightblue" stroke="midnightblue" points="616.912,-70.836 607.903,-76.411 618.422,-77.6712 616.912,-70.836"/>
</g>
<!-- Node23&#45;&gt;Node22 -->
<g id="edge6" class="edge"><title>Node23&#45;&gt;Node22</title>
<path fill="none" stroke="midnightblue" d="M655.387,-48C664.046,-48 672.639,-48 680.813,-48"/>
<polygon fill="midnightblue" stroke="midnightblue" points="655.212,-44.5001 645.212,-48 655.212,-51.5001 655.212,-44.5001"/>
</g>
<!-- Node24&#45;&gt;Node22 -->
<g id="edge8" class="edge"><title>Node24&#45;&gt;Node22</title>
<path fill="none" stroke="midnightblue" d="M617.696,-21.7526C642.017,-27.1258 670.455,-33.4086 693.409,-38.4799"/>
<polygon fill="midnightblue" stroke="midnightblue" points="618.422,-18.3288 607.903,-19.589 616.912,-25.164 618.422,-18.3288"/>
</g>
</g>
</svg>
