<?xml version="1.0" encoding="UTF-8" standalone="no"?>
<!DOCTYPE svg PUBLIC "-//W3C//DTD SVG 1.1//EN"
 "http://www.w3.org/Graphics/SVG/1.1/DTD/svg11.dtd">
<!-- Generated by graphviz version 2.38.0 (20140413.2041)
 -->
<!-- Title: Shapes.Circle.GetPerimeter Pages: 1 -->
<svg width="606pt" height="28pt"
 viewBox="0.00 0.00 606.00 28.00" xmlns="http://www.w3.org/2000/svg" xmlns:xlink="http://www.w3.org/1999/xlink">
<g id="graph0" class="graph" transform="scale(1 1) rotate(0) translate(4 24)">
<title>Shapes.Circle.GetPerimeter</title>
<polygon fill="white" stroke="none" points="-4,4 -4,-24 602,-24 602,4 -4,4"/>
<!-- Node8 -->
<g id="node1" class="node"><title>Node8</title>
<polygon fill="#bfbfbf" stroke="black" points="0,-0.5 0,-19.5 138,-19.5 138,-0.5 0,-0.5"/>
<text text-anchor="middle" x="69" y="-7.5" font-family="Helvetica,sans-Serif" font-size="10.00">Shapes.Circle.GetPerimeter</text>
</g>
<!-- Node9 -->
<g id="node2" class="node"><title>Node9</title>
<g id="a_node2"><a xlink:href="class_shapes_1_1_circle.html#a4a839e20a887e598dca5b27492016771" target="_top" xlink:title="Info about cirlce. ">
<polygon fill="white" stroke="black" points="174,-0.5 174,-19.5 269,-19.5 269,-0.5 174,-0.5"/>
<text text-anchor="middle" x="221.5" y="-7.5" font-family="Helvetica,sans-Serif" font-size="10.00">Shapes.Circle.Info</text>
</a>
</g>
</g>
<!-- Node8&#45;&gt;Node9 -->
<g id="edge1" class="edge"><title>Node8&#45;&gt;Node9</title>
<path fill="none" stroke="midnightblue" d="M148.34,-10C156.976,-10 165.557,-10 173.629,-10"/>
<polygon fill="midnightblue" stroke="midnightblue" points="148.205,-6.5001 138.204,-10 148.204,-13.5001 148.205,-6.5001"/>
</g>
<!-- Node10 -->
<g id="node3" class="node"><title>Node10</title>
<g id="a_node3"><a xlink:href="class_shapes_1_1_program.html#a1efd94a5fcc1c59889d86eb3b6338126" target="_top" xlink:title="Calculations for circle. ">
<polygon fill="white" stroke="black" points="305,-0.5 305,-19.5 449,-19.5 449,-0.5 305,-0.5"/>
<text text-anchor="middle" x="377" y="-7.5" font-family="Helvetica,sans-Serif" font-size="10.00">Shapes.Program.DefineCircle</text>
</a>
</g>
</g>
<!-- Node9&#45;&gt;Node10 -->
<g id="edge2" class="edge"><title>Node9&#45;&gt;Node10</title>
<path fill="none" stroke="midnightblue" d="M279.596,-10C287.815,-10 296.356,-10 304.807,-10"/>
<polygon fill="midnightblue" stroke="midnightblue" points="279.389,-6.5001 269.389,-10 279.389,-13.5001 279.389,-6.5001"/>
</g>
<!-- Node11 -->
<g id="node4" class="node"><title>Node11</title>
<g id="a_node4"><a xlink:href="class_shapes_1_1_program.html#a594c0a6ca9384efead89054fe342664c" target="_top" xlink:title="Main function. ">
<polygon fill="white" stroke="black" points="485,-0.5 485,-19.5 598,-19.5 598,-0.5 485,-0.5"/>
<text text-anchor="middle" x="541.5" y="-7.5" font-family="Helvetica,sans-Serif" font-size="10.00">Shapes.Program.Main</text>
</a>
</g>
</g>
<!-- Node10&#45;&gt;Node11 -->
<g id="edge3" class="edge"><title>Node10&#45;&gt;Node11</title>
<path fill="none" stroke="midnightblue" d="M459.394,-10C468.033,-10 476.67,-10 484.914,-10"/>
<polygon fill="midnightblue" stroke="midnightblue" points="459.275,-6.5001 449.275,-10 459.275,-13.5001 459.275,-6.5001"/>
</g>
</g>
</svg>
