<?xml version="1.0" encoding="UTF-8" standalone="no"?>
<!DOCTYPE svg PUBLIC "-//W3C//DTD SVG 1.1//EN"
 "http://www.w3.org/Graphics/SVG/1.1/DTD/svg11.dtd">
<!-- Generated by graphviz version 2.38.0 (20140413.2041)
 -->
<!-- Title: Shapes.Program.DefineCircle Pages: 1 -->
<svg width="688pt" height="161pt"
 viewBox="0.00 0.00 688.00 161.00" xmlns="http://www.w3.org/2000/svg" xmlns:xlink="http://www.w3.org/1999/xlink">
<g id="graph0" class="graph" transform="scale(1 1) rotate(0) translate(4 157)">
<title>Shapes.Program.DefineCircle</title>
<polygon fill="white" stroke="none" points="-4,4 -4,-157 684,-157 684,4 -4,4"/>
<!-- Node6 -->
<g id="node1" class="node"><title>Node6</title>
<polygon fill="#bfbfbf" stroke="black" points="0,-76.5 0,-95.5 144,-95.5 144,-76.5 0,-76.5"/>
<text text-anchor="middle" x="72" y="-83.5" font-family="Helvetica,sans-Serif" font-size="10.00">Shapes.Program.DefineCircle</text>
</g>
<!-- Node7 -->
<g id="node2" class="node"><title>Node7</title>
<g id="a_node2"><a xlink:href="class_shapes_1_1_program.html#ad2616355773ad5960818471fd199eddc" target="_top" xlink:title="Get number from console. ">
<polygon fill="white" stroke="black" points="183.5,-133.5 183.5,-152.5 316.5,-152.5 316.5,-133.5 183.5,-133.5"/>
<text text-anchor="middle" x="250" y="-140.5" font-family="Helvetica,sans-Serif" font-size="10.00">Shapes.Program.GetValue</text>
</a>
</g>
</g>
<!-- Node6&#45;&gt;Node7 -->
<g id="edge1" class="edge"><title>Node6&#45;&gt;Node7</title>
<path fill="none" stroke="midnightblue" d="M98.3357,-95.583C119.907,-103.601 151.795,-115.121 180,-124 187.252,-126.283 194.979,-128.56 202.54,-130.703"/>
<polygon fill="midnightblue" stroke="midnightblue" points="201.757,-134.119 212.329,-133.434 203.637,-127.376 201.757,-134.119"/>
</g>
<!-- Node8 -->
<g id="node3" class="node"><title>Node8</title>
<g id="a_node3"><a xlink:href="class_shapes_1_1_program.html#aa1b54cd7d170608b6635f0fd2002e4a4" target="_top" xlink:title="Print result (yellow color). ">
<polygon fill="white" stroke="black" points="180,-95.5 180,-114.5 320,-114.5 320,-95.5 180,-95.5"/>
<text text-anchor="middle" x="250" y="-102.5" font-family="Helvetica,sans-Serif" font-size="10.00">Shapes.Program.PrintResult</text>
</a>
</g>
</g>
<!-- Node6&#45;&gt;Node8 -->
<g id="edge2" class="edge"><title>Node6&#45;&gt;Node8</title>
<path fill="none" stroke="midnightblue" d="M144.079,-93.6733C152.581,-94.5912 161.303,-95.5327 169.91,-96.4619"/>
<polygon fill="midnightblue" stroke="midnightblue" points="169.623,-99.9512 179.941,-97.5448 170.375,-92.9916 169.623,-99.9512"/>
</g>
<!-- Node9 -->
<g id="node4" class="node"><title>Node9</title>
<g id="a_node4"><a xlink:href="class_shapes_1_1_circle.html#a4a839e20a887e598dca5b27492016771" target="_top" xlink:title="Info about cirlce. ">
<polygon fill="white" stroke="black" points="202.5,-57.5 202.5,-76.5 297.5,-76.5 297.5,-57.5 202.5,-57.5"/>
<text text-anchor="middle" x="250" y="-64.5" font-family="Helvetica,sans-Serif" font-size="10.00">Shapes.Circle.Info</text>
</a>
</g>
</g>
<!-- Node6&#45;&gt;Node9 -->
<g id="edge3" class="edge"><title>Node6&#45;&gt;Node9</title>
<path fill="none" stroke="midnightblue" d="M144.079,-78.3267C160.047,-76.6029 176.787,-74.7957 192.089,-73.1438"/>
<polygon fill="midnightblue" stroke="midnightblue" points="192.859,-76.5811 202.425,-72.028 192.107,-69.6216 192.859,-76.5811"/>
</g>
<!-- Node12 -->
<g id="node7" class="node"><title>Node12</title>
<g id="a_node7"><a xlink:href="class_shapes_1_1_program.html#a80935e72ada1408dd10d9e268c920b2a" target="_top" xlink:title="Print info about error (red color) and write info in logger file. ">
<polygon fill="white" stroke="black" points="183,-19.5 183,-38.5 317,-38.5 317,-19.5 183,-19.5"/>
<text text-anchor="middle" x="250" y="-26.5" font-family="Helvetica,sans-Serif" font-size="10.00">Shapes.Program.PrintError</text>
</a>
</g>
</g>
<!-- Node6&#45;&gt;Node12 -->
<g id="edge6" class="edge"><title>Node6&#45;&gt;Node12</title>
<path fill="none" stroke="midnightblue" d="M98.3357,-76.417C119.907,-68.3991 151.795,-56.8788 180,-48 187.252,-45.7172 194.979,-43.4402 202.54,-41.2967"/>
<polygon fill="midnightblue" stroke="midnightblue" points="203.637,-44.6242 212.329,-38.5664 201.757,-37.8815 203.637,-44.6242"/>
</g>
<!-- Node10 -->
<g id="node5" class="node"><title>Node10</title>
<g id="a_node5"><a xlink:href="class_shapes_1_1_circle.html#ad486d5e78641c5362021fcf95613b8b5" target="_top" xlink:title="Calculation of circle area. ">
<polygon fill="white" stroke="black" points="367,-95.5 367,-114.5 483,-114.5 483,-95.5 367,-95.5"/>
<text text-anchor="middle" x="425" y="-102.5" font-family="Helvetica,sans-Serif" font-size="10.00">Shapes.Circle.GetArea</text>
</a>
</g>
</g>
<!-- Node9&#45;&gt;Node10 -->
<g id="edge4" class="edge"><title>Node9&#45;&gt;Node10</title>
<path fill="none" stroke="midnightblue" d="M294.655,-76.589C317.793,-81.6713 346.402,-87.9554 370.827,-93.3203"/>
<polygon fill="midnightblue" stroke="midnightblue" points="370.141,-96.753 380.659,-95.4799 371.642,-89.916 370.141,-96.753"/>
</g>
<!-- Node11 -->
<g id="node6" class="node"><title>Node11</title>
<g id="a_node6"><a xlink:href="class_shapes_1_1_circle.html#a80bd1cf7b87ee2a68018d49b97bafabc" target="_top" xlink:title="Calculation of circle perimeter. ">
<polygon fill="white" stroke="black" points="356,-57.5 356,-76.5 494,-76.5 494,-57.5 356,-57.5"/>
<text text-anchor="middle" x="425" y="-64.5" font-family="Helvetica,sans-Serif" font-size="10.00">Shapes.Circle.GetPerimeter</text>
</a>
</g>
</g>
<!-- Node9&#45;&gt;Node11 -->
<g id="edge5" class="edge"><title>Node9&#45;&gt;Node11</title>
<path fill="none" stroke="midnightblue" d="M297.816,-67C312.567,-67 329.283,-67 345.611,-67"/>
<polygon fill="midnightblue" stroke="midnightblue" points="345.705,-70.5001 355.705,-67 345.705,-63.5001 345.705,-70.5001"/>
</g>
<!-- Node13 -->
<g id="node8" class="node"><title>Node13</title>
<g id="a_node8"><a xlink:href="class_shapes_1_1_logger.html#acb7738fb2c18b2c3b0e312bcb005b29b" target="_top" xlink:title="Bulid error message to write to file. ">
<polygon fill="white" stroke="black" points="372,-19.5 372,-38.5 478,-38.5 478,-19.5 372,-19.5"/>
<text text-anchor="middle" x="425" y="-26.5" font-family="Helvetica,sans-Serif" font-size="10.00">Shapes.Logger.Error</text>
</a>
</g>
</g>
<!-- Node12&#45;&gt;Node13 -->
<g id="edge7" class="edge"><title>Node12&#45;&gt;Node13</title>
<path fill="none" stroke="midnightblue" d="M317.392,-29C331.883,-29 347.172,-29 361.506,-29"/>
<polygon fill="midnightblue" stroke="midnightblue" points="361.75,-32.5001 371.75,-29 361.75,-25.5001 361.75,-32.5001"/>
</g>
<!-- Node14 -->
<g id="node9" class="node"><title>Node14</title>
<g id="a_node9"><a xlink:href="class_shapes_1_1_logger.html#a2dda77f7f9cf3efb3500d30d5e5d82d2" target="_top" xlink:title="Get actual date nd time and build time stamp for logger ">
<polygon fill="white" stroke="black" points="530,-38.5 530,-57.5 680,-57.5 680,-38.5 530,-38.5"/>
<text text-anchor="middle" x="605" y="-45.5" font-family="Helvetica,sans-Serif" font-size="10.00">Shapes.Logger.GetTimeStamp</text>
</a>
</g>
</g>
<!-- Node13&#45;&gt;Node14 -->
<g id="edge8" class="edge"><title>Node13&#45;&gt;Node14</title>
<path fill="none" stroke="midnightblue" d="M478.443,-34.5979C491.399,-35.9808 505.606,-37.4972 519.657,-38.9971"/>
<polygon fill="midnightblue" stroke="midnightblue" points="519.526,-42.5029 529.841,-40.0842 520.269,-35.5425 519.526,-42.5029"/>
</g>
<!-- Node15 -->
<g id="node10" class="node"><title>Node15</title>
<g id="a_node10"><a xlink:href="class_shapes_1_1_logger.html#aa96be1c3aa242aaa46000eabab3b8901" target="_top" xlink:title="Append logger text to file. ">
<polygon fill="white" stroke="black" points="538,-0.5 538,-19.5 672,-19.5 672,-0.5 538,-0.5"/>
<text text-anchor="middle" x="605" y="-7.5" font-family="Helvetica,sans-Serif" font-size="10.00">Shapes.Logger.WriteToFile</text>
</a>
</g>
</g>
<!-- Node13&#45;&gt;Node15 -->
<g id="edge9" class="edge"><title>Node13&#45;&gt;Node15</title>
<path fill="none" stroke="midnightblue" d="M478.443,-23.4021C493.814,-21.7614 510.947,-19.9327 527.491,-18.1667"/>
<polygon fill="midnightblue" stroke="midnightblue" points="528.124,-21.6191 537.696,-17.0774 527.381,-14.6587 528.124,-21.6191"/>
</g>
</g>
</svg>
