<?xml version="1.0" encoding="UTF-8" standalone="no"?>
<!DOCTYPE svg PUBLIC "-//W3C//DTD SVG 1.1//EN"
 "http://www.w3.org/Graphics/SVG/1.1/DTD/svg11.dtd">
<!-- Generated by graphviz version 2.38.0 (20140413.2041)
 -->
<!-- Title: Shapes.Rectangle.GetArea Pages: 1 -->
<svg width="641pt" height="28pt"
 viewBox="0.00 0.00 641.00 28.00" xmlns="http://www.w3.org/2000/svg" xmlns:xlink="http://www.w3.org/1999/xlink">
<g id="graph0" class="graph" transform="scale(1 1) rotate(0) translate(4 24)">
<title>Shapes.Rectangle.GetArea</title>
<polygon fill="white" stroke="none" points="-4,4 -4,-24 637,-24 637,4 -4,4"/>
<!-- Node3 -->
<g id="node1" class="node"><title>Node3</title>
<polygon fill="#bfbfbf" stroke="black" points="0,-0.5 0,-19.5 135,-19.5 135,-0.5 0,-0.5"/>
<text text-anchor="middle" x="67.5" y="-7.5" font-family="Helvetica,sans-Serif" font-size="10.00">Shapes.Rectangle.GetArea</text>
</g>
<!-- Node4 -->
<g id="node2" class="node"><title>Node4</title>
<g id="a_node2"><a xlink:href="class_shapes_1_1_rectangle.html#aad9c40eb69f41f219e7f4edc67d54792" target="_top" xlink:title="Info about rectangle. ">
<polygon fill="white" stroke="black" points="171,-0.5 171,-19.5 285,-19.5 285,-0.5 171,-0.5"/>
<text text-anchor="middle" x="228" y="-7.5" font-family="Helvetica,sans-Serif" font-size="10.00">Shapes.Rectangle.Info</text>
</a>
</g>
</g>
<!-- Node3&#45;&gt;Node4 -->
<g id="edge1" class="edge"><title>Node3&#45;&gt;Node4</title>
<path fill="none" stroke="midnightblue" d="M145.319,-10C153.924,-10 162.568,-10 170.843,-10"/>
<polygon fill="midnightblue" stroke="midnightblue" points="145.259,-6.5001 135.259,-10 145.259,-13.5001 145.259,-6.5001"/>
</g>
<!-- Node5 -->
<g id="node3" class="node"><title>Node5</title>
<g id="a_node3"><a xlink:href="class_shapes_1_1_program.html#a8a1637f40366dbd731d40d851a9d56d5" target="_top" xlink:title="Calculations for triangle. ">
<polygon fill="white" stroke="black" points="321,-0.5 321,-19.5 484,-19.5 484,-0.5 321,-0.5"/>
<text text-anchor="middle" x="402.5" y="-7.5" font-family="Helvetica,sans-Serif" font-size="10.00">Shapes.Program.DefineRectangle</text>
</a>
</g>
</g>
<!-- Node4&#45;&gt;Node5 -->
<g id="edge2" class="edge"><title>Node4&#45;&gt;Node5</title>
<path fill="none" stroke="midnightblue" d="M295.082,-10C303.47,-10 312.129,-10 320.715,-10"/>
<polygon fill="midnightblue" stroke="midnightblue" points="295.006,-6.5001 285.006,-10 295.006,-13.5001 295.006,-6.5001"/>
</g>
<!-- Node6 -->
<g id="node4" class="node"><title>Node6</title>
<g id="a_node4"><a xlink:href="class_shapes_1_1_program.html#a594c0a6ca9384efead89054fe342664c" target="_top" xlink:title="Main function. ">
<polygon fill="white" stroke="black" points="520,-0.5 520,-19.5 633,-19.5 633,-0.5 520,-0.5"/>
<text text-anchor="middle" x="576.5" y="-7.5" font-family="Helvetica,sans-Serif" font-size="10.00">Shapes.Program.Main</text>
</a>
</g>
</g>
<!-- Node5&#45;&gt;Node6 -->
<g id="edge3" class="edge"><title>Node5&#45;&gt;Node6</title>
<path fill="none" stroke="midnightblue" d="M494.387,-10C503.046,-10 511.639,-10 519.813,-10"/>
<polygon fill="midnightblue" stroke="midnightblue" points="494.212,-6.5001 484.212,-10 494.212,-13.5001 494.212,-6.5001"/>
</g>
</g>
</svg>
