<?xml version="1.0" encoding="UTF-8" standalone="no"?>
<!DOCTYPE svg PUBLIC "-//W3C//DTD SVG 1.1//EN"
 "http://www.w3.org/Graphics/SVG/1.1/DTD/svg11.dtd">
<!-- Generated by graphviz version 2.38.0 (20140413.2041)
 -->
<!-- Title: Shapes.Circle.Info Pages: 1 -->
<svg width="277pt" height="66pt"
 viewBox="0.00 0.00 277.00 66.00" xmlns="http://www.w3.org/2000/svg" xmlns:xlink="http://www.w3.org/1999/xlink">
<g id="graph0" class="graph" transform="scale(1 1) rotate(0) translate(4 62)">
<title>Shapes.Circle.Info</title>
<polygon fill="white" stroke="none" points="-4,4 -4,-62 273,-62 273,4 -4,4"/>
<!-- Node12 -->
<g id="node1" class="node"><title>Node12</title>
<polygon fill="#bfbfbf" stroke="black" points="0,-19.5 0,-38.5 95,-38.5 95,-19.5 0,-19.5"/>
<text text-anchor="middle" x="47.5" y="-26.5" font-family="Helvetica,sans-Serif" font-size="10.00">Shapes.Circle.Info</text>
</g>
<!-- Node13 -->
<g id="node2" class="node"><title>Node13</title>
<g id="a_node2"><a xlink:href="class_shapes_1_1_circle.html#ad486d5e78641c5362021fcf95613b8b5" target="_top" xlink:title="Calculation of circle area. ">
<polygon fill="white" stroke="black" points="142,-38.5 142,-57.5 258,-57.5 258,-38.5 142,-38.5"/>
<text text-anchor="middle" x="200" y="-45.5" font-family="Helvetica,sans-Serif" font-size="10.00">Shapes.Circle.GetArea</text>
</a>
</g>
</g>
<!-- Node12&#45;&gt;Node13 -->
<g id="edge1" class="edge"><title>Node12&#45;&gt;Node13</title>
<path fill="none" stroke="midnightblue" d="M95.2942,-34.9076C106.822,-36.3629 119.394,-37.9501 131.681,-39.5013"/>
<polygon fill="midnightblue" stroke="midnightblue" points="131.547,-43.012 141.906,-40.7922 132.423,-36.0671 131.547,-43.012"/>
</g>
<!-- Node14 -->
<g id="node3" class="node"><title>Node14</title>
<g id="a_node3"><a xlink:href="class_shapes_1_1_circle.html#a80bd1cf7b87ee2a68018d49b97bafabc" target="_top" xlink:title="Calculation of circle perimeter. ">
<polygon fill="white" stroke="black" points="131,-0.5 131,-19.5 269,-19.5 269,-0.5 131,-0.5"/>
<text text-anchor="middle" x="200" y="-7.5" font-family="Helvetica,sans-Serif" font-size="10.00">Shapes.Circle.GetPerimeter</text>
</a>
</g>
</g>
<!-- Node12&#45;&gt;Node14 -->
<g id="edge2" class="edge"><title>Node12&#45;&gt;Node14</title>
<path fill="none" stroke="midnightblue" d="M95.2942,-23.0924C103.507,-22.0556 112.25,-20.9518 121.043,-19.8418"/>
<polygon fill="midnightblue" stroke="midnightblue" points="121.482,-23.3141 130.965,-18.5891 120.606,-16.3693 121.482,-23.3141"/>
</g>
</g>
</svg>
