<?xml version="1.0" encoding="UTF-8" standalone="no"?>
<!DOCTYPE svg PUBLIC "-//W3C//DTD SVG 1.1//EN"
 "http://www.w3.org/Graphics/SVG/1.1/DTD/svg11.dtd">
<!-- Generated by graphviz version 2.38.0 (20140413.2041)
 -->
<!-- Title: Shapes.Triangle.GetPerimeter Pages: 1 -->
<svg width="633pt" height="28pt"
 viewBox="0.00 0.00 633.00 28.00" xmlns="http://www.w3.org/2000/svg" xmlns:xlink="http://www.w3.org/1999/xlink">
<g id="graph0" class="graph" transform="scale(1 1) rotate(0) translate(4 24)">
<title>Shapes.Triangle.GetPerimeter</title>
<polygon fill="white" stroke="none" points="-4,4 -4,-24 629,-24 629,4 -4,4"/>
<!-- Node15 -->
<g id="node1" class="node"><title>Node15</title>
<polygon fill="#bfbfbf" stroke="black" points="0,-0.5 0,-19.5 147,-19.5 147,-0.5 0,-0.5"/>
<text text-anchor="middle" x="73.5" y="-7.5" font-family="Helvetica,sans-Serif" font-size="10.00">Shapes.Triangle.GetPerimeter</text>
</g>
<!-- Node16 -->
<g id="node2" class="node"><title>Node16</title>
<g id="a_node2"><a xlink:href="class_shapes_1_1_triangle.html#a18b9dc53dd62fedb7082f6316d6b8da4" target="_top" xlink:title="Info about triangle. ">
<polygon fill="white" stroke="black" points="183,-0.5 183,-19.5 287,-19.5 287,-0.5 183,-0.5"/>
<text text-anchor="middle" x="235" y="-7.5" font-family="Helvetica,sans-Serif" font-size="10.00">Shapes.Triangle.Info</text>
</a>
</g>
</g>
<!-- Node15&#45;&gt;Node16 -->
<g id="edge1" class="edge"><title>Node15&#45;&gt;Node16</title>
<path fill="none" stroke="midnightblue" d="M157.396,-10C166.042,-10 174.638,-10 182.777,-10"/>
<polygon fill="midnightblue" stroke="midnightblue" points="157.249,-6.5001 147.249,-10 157.249,-13.5001 157.249,-6.5001"/>
</g>
<!-- Node17 -->
<g id="node3" class="node"><title>Node17</title>
<g id="a_node3"><a xlink:href="class_shapes_1_1_program.html#ad8b6d8412545a58506aaaad285d34ff6" target="_top" xlink:title="Calculations for triangle. ">
<polygon fill="white" stroke="black" points="323,-0.5 323,-19.5 476,-19.5 476,-0.5 323,-0.5"/>
<text text-anchor="middle" x="399.5" y="-7.5" font-family="Helvetica,sans-Serif" font-size="10.00">Shapes.Program.DefineTriangle</text>
</a>
</g>
</g>
<!-- Node16&#45;&gt;Node17 -->
<g id="edge2" class="edge"><title>Node16&#45;&gt;Node17</title>
<path fill="none" stroke="midnightblue" d="M297.643,-10C305.859,-10 314.36,-10 322.781,-10"/>
<polygon fill="midnightblue" stroke="midnightblue" points="297.416,-6.5001 287.416,-10 297.416,-13.5001 297.416,-6.5001"/>
</g>
<!-- Node18 -->
<g id="node4" class="node"><title>Node18</title>
<g id="a_node4"><a xlink:href="class_shapes_1_1_program.html#a594c0a6ca9384efead89054fe342664c" target="_top" xlink:title="Main function. ">
<polygon fill="white" stroke="black" points="512,-0.5 512,-19.5 625,-19.5 625,-0.5 512,-0.5"/>
<text text-anchor="middle" x="568.5" y="-7.5" font-family="Helvetica,sans-Serif" font-size="10.00">Shapes.Program.Main</text>
</a>
</g>
</g>
<!-- Node17&#45;&gt;Node18 -->
<g id="edge3" class="edge"><title>Node17&#45;&gt;Node18</title>
<path fill="none" stroke="midnightblue" d="M486.26,-10C494.85,-10 503.409,-10 511.572,-10"/>
<polygon fill="midnightblue" stroke="midnightblue" points="486.182,-6.5001 476.182,-10 486.182,-13.5001 486.182,-6.5001"/>
</g>
</g>
</svg>
