<?xml version="1.0" encoding="UTF-8" standalone="no"?>
<!DOCTYPE svg PUBLIC "-//W3C//DTD SVG 1.1//EN"
 "http://www.w3.org/Graphics/SVG/1.1/DTD/svg11.dtd">
<!-- Generated by graphviz version 2.38.0 (20140413.2041)
 -->
<!-- Title: Shapes.Logger.Error Pages: 1 -->
<svg width="300pt" height="66pt"
 viewBox="0.00 0.00 300.00 66.00" xmlns="http://www.w3.org/2000/svg" xmlns:xlink="http://www.w3.org/1999/xlink">
<g id="graph0" class="graph" transform="scale(1 1) rotate(0) translate(4 62)">
<title>Shapes.Logger.Error</title>
<polygon fill="white" stroke="none" points="-4,4 -4,-62 296,-62 296,4 -4,4"/>
<!-- Node0 -->
<g id="node1" class="node"><title>Node0</title>
<polygon fill="#bfbfbf" stroke="black" points="0,-19.5 0,-38.5 106,-38.5 106,-19.5 0,-19.5"/>
<text text-anchor="middle" x="53" y="-26.5" font-family="Helvetica,sans-Serif" font-size="10.00">Shapes.Logger.Error</text>
</g>
<!-- Node1 -->
<g id="node2" class="node"><title>Node1</title>
<g id="a_node2"><a xlink:href="class_shapes_1_1_logger.html#a2dda77f7f9cf3efb3500d30d5e5d82d2" target="_top" xlink:title="Get actual date nd time and build time stamp for logger ">
<polygon fill="white" stroke="black" points="142,-38.5 142,-57.5 292,-57.5 292,-38.5 142,-38.5"/>
<text text-anchor="middle" x="217" y="-45.5" font-family="Helvetica,sans-Serif" font-size="10.00">Shapes.Logger.GetTimeStamp</text>
</a>
</g>
</g>
<!-- Node0&#45;&gt;Node1 -->
<g id="edge1" class="edge"><title>Node0&#45;&gt;Node1</title>
<path fill="none" stroke="midnightblue" d="M106.15,-35.1163C114.327,-36.0754 122.955,-37.0873 131.635,-38.1054"/>
<polygon fill="midnightblue" stroke="midnightblue" points="131.485,-41.6116 141.825,-39.3004 132.3,-34.6593 131.485,-41.6116"/>
</g>
<!-- Node2 -->
<g id="node3" class="node"><title>Node2</title>
<g id="a_node3"><a xlink:href="class_shapes_1_1_logger.html#aa96be1c3aa242aaa46000eabab3b8901" target="_top" xlink:title="Append logger text to file. ">
<polygon fill="white" stroke="black" points="150,-0.5 150,-19.5 284,-19.5 284,-0.5 150,-0.5"/>
<text text-anchor="middle" x="217" y="-7.5" font-family="Helvetica,sans-Serif" font-size="10.00">Shapes.Logger.WriteToFile</text>
</a>
</g>
</g>
<!-- Node0&#45;&gt;Node2 -->
<g id="edge2" class="edge"><title>Node0&#45;&gt;Node2</title>
<path fill="none" stroke="midnightblue" d="M106.15,-22.8837C116.88,-21.6251 128.389,-20.2754 139.77,-18.9405"/>
<polygon fill="midnightblue" stroke="midnightblue" points="140.193,-22.415 149.718,-17.7739 139.378,-15.4626 140.193,-22.415"/>
</g>
</g>
</svg>
