<?xml version="1.0" encoding="UTF-8" standalone="no"?>
<!DOCTYPE svg PUBLIC "-//W3C//DTD SVG 1.1//EN"
 "http://www.w3.org/Graphics/SVG/1.1/DTD/svg11.dtd">
<!-- Generated by graphviz version 2.38.0 (20140413.2041)
 -->
<!-- Title: Graphical Class Hierarchy Pages: 1 -->
<svg width="223pt" height="104pt"
 viewBox="0.00 0.00 223.00 104.00" xmlns="http://www.w3.org/2000/svg" xmlns:xlink="http://www.w3.org/1999/xlink">
<g id="graph0" class="graph" transform="scale(1 1) rotate(0) translate(4 100)">
<title>Graphical Class Hierarchy</title>
<polygon fill="white" stroke="none" points="-4,4 -4,-100 219,-100 219,4 -4,4"/>
<!-- Node0 -->
<g id="node1" class="node"><title>Node0</title>
<g id="a_node1"><a xlink:href="interface_shapes_1_1_i_shape.html" target="_top" xlink:title="Interface for shapes classes. ">
<polygon fill="white" stroke="black" points="0,-38.5 0,-57.5 83,-57.5 83,-38.5 0,-38.5"/>
<text text-anchor="middle" x="41.5" y="-45.5" font-family="Helvetica,sans-Serif" font-size="10.00">Shapes.IShape</text>
</a>
</g>
</g>
<!-- Node1 -->
<g id="node2" class="node"><title>Node1</title>
<g id="a_node2"><a xlink:href="class_shapes_1_1_circle.html" target="_top" xlink:title="Description of circle object. ">
<polygon fill="white" stroke="black" points="128.5,-76.5 128.5,-95.5 205.5,-95.5 205.5,-76.5 128.5,-76.5"/>
<text text-anchor="middle" x="167" y="-83.5" font-family="Helvetica,sans-Serif" font-size="10.00">Shapes.Circle</text>
</a>
</g>
</g>
<!-- Node0&#45;&gt;Node1 -->
<g id="edge1" class="edge"><title>Node0&#45;&gt;Node1</title>
<path fill="none" stroke="midnightblue" d="M83.2397,-60.5353C100.04,-65.7048 119.197,-71.5991 134.846,-76.4141"/>
<polygon fill="midnightblue" stroke="midnightblue" points="84.2514,-57.1847 73.6643,-57.589 82.1927,-63.8752 84.2514,-57.1847"/>
</g>
<!-- Node2 -->
<g id="node3" class="node"><title>Node2</title>
<g id="a_node3"><a xlink:href="class_shapes_1_1_rectangle.html" target="_top" xlink:title="Description of rectangle objects. ">
<polygon fill="white" stroke="black" points="119,-38.5 119,-57.5 215,-57.5 215,-38.5 119,-38.5"/>
<text text-anchor="middle" x="167" y="-45.5" font-family="Helvetica,sans-Serif" font-size="10.00">Shapes.Rectangle</text>
</a>
</g>
</g>
<!-- Node0&#45;&gt;Node2 -->
<g id="edge2" class="edge"><title>Node0&#45;&gt;Node2</title>
<path fill="none" stroke="midnightblue" d="M93.3775,-48C101.804,-48 110.51,-48 118.841,-48"/>
<polygon fill="midnightblue" stroke="midnightblue" points="93.2808,-44.5001 83.2808,-48 93.2808,-51.5001 93.2808,-44.5001"/>
</g>
<!-- Node3 -->
<g id="node4" class="node"><title>Node3</title>
<g id="a_node4"><a xlink:href="class_shapes_1_1_triangle.html" target="_top" xlink:title="Description of triangle object. ">
<polygon fill="white" stroke="black" points="124,-0.5 124,-19.5 210,-19.5 210,-0.5 124,-0.5"/>
<text text-anchor="middle" x="167" y="-7.5" font-family="Helvetica,sans-Serif" font-size="10.00">Shapes.Triangle</text>
</a>
</g>
</g>
<!-- Node0&#45;&gt;Node3 -->
<g id="edge3" class="edge"><title>Node0&#45;&gt;Node3</title>
<path fill="none" stroke="midnightblue" d="M83.2397,-35.4647C100.04,-30.2952 119.197,-24.4009 134.846,-19.5859"/>
<polygon fill="midnightblue" stroke="midnightblue" points="82.1927,-32.1248 73.6643,-38.411 84.2514,-38.8153 82.1927,-32.1248"/>
</g>
</g>
</svg>
