<?xml version="1.0" encoding="UTF-8" standalone="no"?>
<!DOCTYPE svg PUBLIC "-//W3C//DTD SVG 1.1//EN"
 "http://www.w3.org/Graphics/SVG/1.1/DTD/svg11.dtd">
<!-- Generated by graphviz version 2.38.0 (20140413.2041)
 -->
<!-- Title: Shapes.IShape Pages: 1 -->
<svg width="319pt" height="248pt"
 viewBox="0.00 0.00 319.00 248.00" xmlns="http://www.w3.org/2000/svg" xmlns:xlink="http://www.w3.org/1999/xlink">
<g id="graph0" class="graph" transform="scale(1 1) rotate(0) translate(4 244)">
<title>Shapes.IShape</title>
<polygon fill="white" stroke="none" points="-4,4 -4,-244 315,-244 315,4 -4,4"/>
<!-- Node0 -->
<g id="node1" class="node"><title>Node0</title>
<polygon fill="#bfbfbf" stroke="black" points="111,-160.5 111,-239.5 200,-239.5 200,-160.5 111,-160.5"/>
<text text-anchor="middle" x="155.5" y="-227.5" font-family="Helvetica,sans-Serif" font-size="10.00">Shapes.IShape</text>
<polyline fill="none" stroke="black" points="111,-220.5 200,-220.5 "/>
<text text-anchor="middle" x="155.5" y="-208.5" font-family="Helvetica,sans-Serif" font-size="10.00"> </text>
<polyline fill="none" stroke="black" points="111,-201.5 200,-201.5 "/>
<text text-anchor="start" x="119" y="-189.5" font-family="Helvetica,sans-Serif" font-size="10.00">+ GetArea()</text>
<text text-anchor="start" x="119" y="-178.5" font-family="Helvetica,sans-Serif" font-size="10.00">+ GetPerimeter()</text>
<text text-anchor="start" x="119" y="-167.5" font-family="Helvetica,sans-Serif" font-size="10.00">+ Info()</text>
</g>
<!-- Node1 -->
<g id="node2" class="node"><title>Node1</title>
<g id="a_node2"><a xlink:href="class_shapes_1_1_circle.html" target="_top" xlink:title="Description of circle object. ">
<polygon fill="white" stroke="black" points="0,-17 0,-107 89,-107 89,-17 0,-17"/>
<text text-anchor="middle" x="44.5" y="-95" font-family="Helvetica,sans-Serif" font-size="10.00">Shapes.Circle</text>
<polyline fill="none" stroke="black" points="0,-88 89,-88 "/>
<text text-anchor="start" x="8" y="-76" font-family="Helvetica,sans-Serif" font-size="10.00">&#45; r</text>
<polyline fill="none" stroke="black" points="0,-69 89,-69 "/>
<text text-anchor="start" x="8" y="-57" font-family="Helvetica,sans-Serif" font-size="10.00">+ Circle()</text>
<text text-anchor="start" x="8" y="-46" font-family="Helvetica,sans-Serif" font-size="10.00">+ GetArea()</text>
<text text-anchor="start" x="8" y="-35" font-family="Helvetica,sans-Serif" font-size="10.00">+ GetPerimeter()</text>
<text text-anchor="start" x="8" y="-24" font-family="Helvetica,sans-Serif" font-size="10.00">+ Info()</text>
</a>
</g>
</g>
<!-- Node0&#45;&gt;Node1 -->
<g id="edge1" class="edge"><title>Node0&#45;&gt;Node1</title>
<path fill="none" stroke="midnightblue" d="M117.525,-152.472C105.639,-137.909 92.5591,-121.883 80.7927,-107.467"/>
<polygon fill="none" stroke="midnightblue" points="114.954,-154.858 123.989,-160.392 120.377,-150.431 114.954,-154.858"/>
</g>
<!-- Node2 -->
<g id="node3" class="node"><title>Node2</title>
<g id="a_node3"><a xlink:href="class_shapes_1_1_rectangle.html" target="_top" xlink:title="Description of rectangle objects. ">
<polygon fill="white" stroke="black" points="107.5,-11.5 107.5,-112.5 203.5,-112.5 203.5,-11.5 107.5,-11.5"/>
<text text-anchor="middle" x="155.5" y="-100.5" font-family="Helvetica,sans-Serif" font-size="10.00">Shapes.Rectangle</text>
<polyline fill="none" stroke="black" points="107.5,-93.5 203.5,-93.5 "/>
<text text-anchor="start" x="115.5" y="-81.5" font-family="Helvetica,sans-Serif" font-size="10.00">&#45; a</text>
<text text-anchor="start" x="115.5" y="-70.5" font-family="Helvetica,sans-Serif" font-size="10.00">&#45; b</text>
<polyline fill="none" stroke="black" points="107.5,-63.5 203.5,-63.5 "/>
<text text-anchor="start" x="115.5" y="-51.5" font-family="Helvetica,sans-Serif" font-size="10.00">+ Rectangle()</text>
<text text-anchor="start" x="115.5" y="-40.5" font-family="Helvetica,sans-Serif" font-size="10.00">+ GetArea()</text>
<text text-anchor="start" x="115.5" y="-29.5" font-family="Helvetica,sans-Serif" font-size="10.00">+ GetPerimeter()</text>
<text text-anchor="start" x="115.5" y="-18.5" font-family="Helvetica,sans-Serif" font-size="10.00">+ Info()</text>
</a>
</g>
</g>
<!-- Node0&#45;&gt;Node2 -->
<g id="edge2" class="edge"><title>Node0&#45;&gt;Node2</title>
<path fill="none" stroke="midnightblue" d="M155.5,-150.047C155.5,-137.972 155.5,-125.025 155.5,-112.905"/>
<polygon fill="none" stroke="midnightblue" points="152,-150.392 155.5,-160.392 159,-150.392 152,-150.392"/>
</g>
<!-- Node3 -->
<g id="node4" class="node"><title>Node3</title>
<g id="a_node4"><a xlink:href="class_shapes_1_1_triangle.html" target="_top" xlink:title="Description of triangle object. ">
<polygon fill="white" stroke="black" points="222,-0.5 222,-123.5 311,-123.5 311,-0.5 222,-0.5"/>
<text text-anchor="middle" x="266.5" y="-111.5" font-family="Helvetica,sans-Serif" font-size="10.00">Shapes.Triangle</text>
<polyline fill="none" stroke="black" points="222,-104.5 311,-104.5 "/>
<text text-anchor="start" x="230" y="-92.5" font-family="Helvetica,sans-Serif" font-size="10.00">&#45; a</text>
<text text-anchor="start" x="230" y="-81.5" font-family="Helvetica,sans-Serif" font-size="10.00">&#45; b</text>
<text text-anchor="start" x="230" y="-70.5" font-family="Helvetica,sans-Serif" font-size="10.00">&#45; c</text>
<polyline fill="none" stroke="black" points="222,-63.5 311,-63.5 "/>
<text text-anchor="start" x="230" y="-51.5" font-family="Helvetica,sans-Serif" font-size="10.00">+ Triangle()</text>
<text text-anchor="start" x="230" y="-40.5" font-family="Helvetica,sans-Serif" font-size="10.00">+ GetArea()</text>
<text text-anchor="start" x="230" y="-29.5" font-family="Helvetica,sans-Serif" font-size="10.00">+ GetPerimeter()</text>
<text text-anchor="start" x="230" y="-18.5" font-family="Helvetica,sans-Serif" font-size="10.00">+ Info()</text>
<text text-anchor="start" x="230" y="-7.5" font-family="Helvetica,sans-Serif" font-size="10.00">&#45; CalculateS()</text>
</a>
</g>
</g>
<!-- Node0&#45;&gt;Node3 -->
<g id="edge3" class="edge"><title>Node0&#45;&gt;Node3</title>
<path fill="none" stroke="midnightblue" d="M193.515,-152.423C202.639,-141.244 212.465,-129.205 221.859,-117.695"/>
<polygon fill="none" stroke="midnightblue" points="190.623,-150.431 187.011,-160.392 196.046,-154.858 190.623,-150.431"/>
</g>
</g>
</svg>
